ISO-10303-21;
HEADER;
/* Generated by software containing ST-Developer
 * from STEP Tools, Inc. (www.steptools.com) 
 */
/* OPTION: using custom renumber hook */

FILE_DESCRIPTION(
/* description */ ('STEP AP214'),
/* implementation_level */ '2;1');

FILE_NAME(
/* name */ 'DSS30-10',
/* time_stamp */ '2026-07-11T12:41:57+02:00',
/* author */ ('License CC BY-ND 4.0'),
/* organization */ ('CADENAS'),
/* preprocessor_version */ 'ST-DEVELOPER v20',
/* originating_system */ 'PARTsolutions',
/* authorisation */ '  ');

FILE_SCHEMA (('AUTOMOTIVE_DESIGN {1 0 10303 214 3 1 1}'));
ENDSEC;

DATA;
#10=PROPERTY_DEFINITION_REPRESENTATION(#14,#12);
#11=PROPERTY_DEFINITION_REPRESENTATION(#15,#13);
#12=REPRESENTATION('',(#16),#798);
#13=REPRESENTATION('',(#17),#798);
#14=PROPERTY_DEFINITION('pmi validation property','',#807);
#15=PROPERTY_DEFINITION('pmi validation property','',#807);
#16=VALUE_REPRESENTATION_ITEM('number of annotations',COUNT_MEASURE(0.));
#17=VALUE_REPRESENTATION_ITEM('number of views',COUNT_MEASURE(0.));
#18=LINE('',#771,#30);
#19=LINE('',#773,#31);
#20=LINE('',#775,#32);
#21=LINE('',#777,#33);
#22=LINE('',#779,#34);
#23=LINE('',#781,#35);
#24=LINE('',#783,#36);
#25=LINE('',#785,#37);
#26=LINE('',#787,#38);
#27=LINE('',#789,#39);
#28=LINE('',#791,#40);
#29=LINE('',#793,#41);
#30=VECTOR('',#575,1000.);
#31=VECTOR('',#576,1000.);
#32=VECTOR('',#577,1000.);
#33=VECTOR('',#580,1000.);
#34=VECTOR('',#581,1000.);
#35=VECTOR('',#584,1000.);
#36=VECTOR('',#585,1000.);
#37=VECTOR('',#588,1000.);
#38=VECTOR('',#589,1000.);
#39=VECTOR('',#592,1000.);
#40=VECTOR('',#593,1000.);
#41=VECTOR('',#596,1000.);
#42=CONTEXT_DEPENDENT_SHAPE_REPRESENTATION(#48,#809);
#43=CONTEXT_DEPENDENT_SHAPE_REPRESENTATION(#49,#811);
#44=CONTEXT_DEPENDENT_SHAPE_REPRESENTATION(#50,#812);
#45=NEXT_ASSEMBLY_USAGE_OCCURRENCE('NAUO1','DSS30-10part',
'DSS30-10part',#813,#814,'');
#46=NEXT_ASSEMBLY_USAGE_OCCURRENCE('NAUO2',
'Hexagon socket set screw with flat point DIN 913 - M8x8',
'Hexagon socket set screw with flat point DIN 913 - M8x8',#813,#815,'');
#47=NEXT_ASSEMBLY_USAGE_OCCURRENCE('NAUO3',
'Hexagon socket set screw with flat point DIN 913 - M8x8',
'Hexagon socket set screw with flat point DIN 913 - M8x8',#813,#815,'');
#48=(
REPRESENTATION_RELATIONSHIP(' ',' ',#427,#426)
REPRESENTATION_RELATIONSHIP_WITH_TRANSFORMATION(#51)
SHAPE_REPRESENTATION_RELATIONSHIP()
);
#49=(
REPRESENTATION_RELATIONSHIP(' ',' ',#428,#426)
REPRESENTATION_RELATIONSHIP_WITH_TRANSFORMATION(#52)
SHAPE_REPRESENTATION_RELATIONSHIP()
);
#50=(
REPRESENTATION_RELATIONSHIP(' ',' ',#428,#426)
REPRESENTATION_RELATIONSHIP_WITH_TRANSFORMATION(#53)
SHAPE_REPRESENTATION_RELATIONSHIP()
);
#51=ITEM_DEFINED_TRANSFORMATION(' ',' ',#429,#452);
#52=ITEM_DEFINED_TRANSFORMATION(' ',' ',#429,#481);
#53=ITEM_DEFINED_TRANSFORMATION(' ',' ',#429,#482);
#54=SHAPE_REPRESENTATION_RELATIONSHIP('','',#427,#56);
#55=SHAPE_REPRESENTATION_RELATIONSHIP('','',#428,#57);
#56=ADVANCED_BREP_SHAPE_REPRESENTATION('',(#421),#799);
#57=ADVANCED_BREP_SHAPE_REPRESENTATION('',(#422),#800);
#58=CONICAL_SURFACE('',#439,14.,0.785398163397448);
#59=CONICAL_SURFACE('',#440,15.,0.785398163397448);
#60=CONICAL_SURFACE('',#444,6.,0.785398163397449);
#61=CONICAL_SURFACE('',#445,5.,0.785398163397449);
#62=CONICAL_SURFACE('',#446,4.,0.785398163397448);
#63=CONICAL_SURFACE('',#449,3.32350000000001,0.785398163397443);
#64=CONICAL_SURFACE('',#453,2.3094010767585,1.0471975511966);
#65=CONICAL_SURFACE('',#455,2.3094010767585,1.0471975511966);
#66=CONICAL_SURFACE('',#457,2.3094010767585,1.0471975511966);
#67=CONICAL_SURFACE('',#459,2.3094010767585,1.0471975511966);
#68=CONICAL_SURFACE('',#461,2.3094010767585,1.0471975511966);
#69=CONICAL_SURFACE('',#463,2.3094010767585,1.0471975511966);
#70=CONICAL_SURFACE('',#467,2.75,0.785398163397448);
#71=CONICAL_SURFACE('',#471,4.,1.0471975511966);
#72=PLANE('',#436);
#73=PLANE('',#442);
#74=PLANE('',#465);
#75=PLANE('',#473);
#76=PLANE('',#474);
#77=PLANE('',#475);
#78=PLANE('',#476);
#79=PLANE('',#477);
#80=PLANE('',#478);
#81=PLANE('',#479);
#82=PLANE('',#480);
#83=B_SPLINE_CURVE_WITH_KNOTS('',3,(#609,#610,#611,#612,#613,#614,#615,
#616,#617,#618,#619,#620,#621,#622,#623),.UNSPECIFIED.,.T.,.F.,(1,1,1,1,
1,1,1,1,1,1,1,1,1,1,1,1,1,1,1),(-0.00743722100661052,-0.00594977680528841,
-0.00297488840264421,0.,0.0014874442013221,0.00297488840264421,0.00446233260396631,
0.00594977680528841,0.00892466520793262,0.0118995536105768,0.0133869978118989,
0.014874442013221,0.0163618862145431,0.0178493304158652,0.0208242188185094,
0.0237991072211536,0.0252865514224757,0.0267739956237979,0.02826143982512),
 .UNSPECIFIED.);
#84=B_SPLINE_CURVE_WITH_KNOTS('',3,(#625,#626,#627,#628,#629,#630,#631,
#632,#633,#634,#635,#636,#637,#638,#639),.UNSPECIFIED.,.T.,.F.,(1,1,1,1,
1,1,1,1,1,1,1,1,1,1,1,1,1,1,1),(-0.00444690548758202,-0.00296460365838802,
-0.00148230182919401,0.,0.00296460365838802,0.00592920731677603,0.00741150914597004,
0.00889381097516405,0.0103761128043581,0.0118584146335521,0.0148230182919401,
0.0177876219503281,0.0192699237795221,0.0207522256087161,0.0222345274379101,
0.0237168292671041,0.0266814329254921,0.0296460365838802,0.0311283384130742),
 .UNSPECIFIED.);
#85=B_SPLINE_CURVE_WITH_KNOTS('',3,(#642,#643,#644,#645,#646,#647,#648,
#649,#650,#651,#652,#653,#654,#655,#656,#657,#658,#659,#660),
 .UNSPECIFIED.,.T.,.F.,(1,1,1,1,1,1,1,1,1,1,1,1,1,1,1,1,1,1,1,1,1,1,1),
(-0.00401842725065049,-0.00267895150043366,-0.00133947575021683,0.,0.00133947575021683,
0.00267895150043366,0.00401842725065049,0.00535790300086732,0.00669737875108415,
0.00803685450130098,0.00937633025151781,0.0107158060017346,0.0120552817519515,
0.0133947575021683,0.0147342332523851,0.016073709002602,0.0174131847528188,
0.0187526605030356,0.0200921362532524,0.0214316120034693,0.0227710877536861,
0.0241105635039029,0.0254500392541198),.UNSPECIFIED.);
#86=B_SPLINE_CURVE_WITH_KNOTS('',3,(#666,#667,#668,#669,#670,#671,#672,
#673,#674,#675,#676,#677,#678,#679,#680,#681,#682,#683,#684),
 .UNSPECIFIED.,.T.,.F.,(1,1,1,1,1,1,1,1,1,1,1,1,1,1,1,1,1,1,1,1,1,1,1),
(-0.00401842725065049,-0.00267895150043366,-0.00133947575021683,0.,0.00133947575021683,
0.00267895150043366,0.00401842725065049,0.00535790300086733,0.00669737875108416,
0.00803685450130099,0.00937633025151782,0.0107158060017347,0.0120552817519515,
0.0133947575021683,0.0147342332523851,0.016073709002602,0.0174131847528188,
0.0187526605030356,0.0200921362532525,0.0214316120034693,0.0227710877536861,
0.024110563503903,0.0254500392541198),.UNSPECIFIED.);
#87=B_SPLINE_CURVE_WITH_KNOTS('',3,(#710,#711,#712,#713,#714),
 .UNSPECIFIED.,.F.,.F.,(4,1,4),(2.38074948507297E-7,0.00116642510612875,
0.00233261213730899),.UNSPECIFIED.);
#88=B_SPLINE_CURVE_WITH_KNOTS('',3,(#719,#720,#721,#722,#723),
 .UNSPECIFIED.,.F.,.F.,(4,1,4),(2.38074948507153E-7,0.00116642510612875,
0.00233261213730899),.UNSPECIFIED.);
#89=B_SPLINE_CURVE_WITH_KNOTS('',3,(#727,#728,#729,#730,#731),
 .UNSPECIFIED.,.F.,.F.,(4,1,4),(0.00290927612237417,0.00408503274023038,
0.00526078935808658),.UNSPECIFIED.);
#90=B_SPLINE_CURVE_WITH_KNOTS('',3,(#735,#736,#737,#738,#739),
 .UNSPECIFIED.,.F.,.F.,(4,1,4),(2.38074948507297E-7,0.00116642510612875,
0.00233261213730899),.UNSPECIFIED.);
#91=B_SPLINE_CURVE_WITH_KNOTS('',3,(#743,#744,#745,#746,#747),
 .UNSPECIFIED.,.F.,.F.,(4,1,4),(2.38074948507154E-7,0.00116642510612875,
0.00233261213730899),.UNSPECIFIED.);
#92=B_SPLINE_CURVE_WITH_KNOTS('',3,(#751,#752,#753,#754,#755),
 .UNSPECIFIED.,.F.,.F.,(4,1,4),(0.00290927612237417,0.00408503274023038,
0.00526078935808658),.UNSPECIFIED.);
#93=ORIENTED_EDGE('',*,*,#177,.T.);
#94=ORIENTED_EDGE('',*,*,#178,.F.);
#95=ORIENTED_EDGE('',*,*,#179,.F.);
#96=ORIENTED_EDGE('',*,*,#180,.F.);
#97=ORIENTED_EDGE('',*,*,#181,.T.);
#98=ORIENTED_EDGE('',*,*,#182,.T.);
#99=ORIENTED_EDGE('',*,*,#183,.F.);
#100=ORIENTED_EDGE('',*,*,#184,.T.);
#101=ORIENTED_EDGE('',*,*,#185,.T.);
#102=ORIENTED_EDGE('',*,*,#186,.F.);
#103=ORIENTED_EDGE('',*,*,#177,.F.);
#104=ORIENTED_EDGE('',*,*,#186,.T.);
#105=ORIENTED_EDGE('',*,*,#187,.F.);
#106=ORIENTED_EDGE('',*,*,#178,.T.);
#107=ORIENTED_EDGE('',*,*,#188,.F.);
#108=ORIENTED_EDGE('',*,*,#187,.T.);
#109=ORIENTED_EDGE('',*,*,#183,.T.);
#110=ORIENTED_EDGE('',*,*,#185,.F.);
#111=ORIENTED_EDGE('',*,*,#188,.T.);
#112=ORIENTED_EDGE('',*,*,#182,.F.);
#113=ORIENTED_EDGE('',*,*,#189,.T.);
#114=ORIENTED_EDGE('',*,*,#179,.T.);
#115=ORIENTED_EDGE('',*,*,#181,.F.);
#116=ORIENTED_EDGE('',*,*,#189,.F.);
#117=ORIENTED_EDGE('',*,*,#190,.F.);
#118=ORIENTED_EDGE('',*,*,#180,.T.);
#119=ORIENTED_EDGE('',*,*,#184,.F.);
#120=ORIENTED_EDGE('',*,*,#190,.T.);
#121=ORIENTED_EDGE('',*,*,#191,.F.);
#122=ORIENTED_EDGE('',*,*,#192,.T.);
#123=ORIENTED_EDGE('',*,*,#193,.F.);
#124=ORIENTED_EDGE('',*,*,#194,.T.);
#125=ORIENTED_EDGE('',*,*,#195,.F.);
#126=ORIENTED_EDGE('',*,*,#196,.T.);
#127=ORIENTED_EDGE('',*,*,#197,.F.);
#128=ORIENTED_EDGE('',*,*,#198,.T.);
#129=ORIENTED_EDGE('',*,*,#199,.F.);
#130=ORIENTED_EDGE('',*,*,#200,.T.);
#131=ORIENTED_EDGE('',*,*,#201,.F.);
#132=ORIENTED_EDGE('',*,*,#202,.T.);
#133=ORIENTED_EDGE('',*,*,#203,.F.);
#134=ORIENTED_EDGE('',*,*,#204,.F.);
#135=ORIENTED_EDGE('',*,*,#203,.T.);
#136=ORIENTED_EDGE('',*,*,#205,.F.);
#137=ORIENTED_EDGE('',*,*,#204,.T.);
#138=ORIENTED_EDGE('',*,*,#206,.F.);
#139=ORIENTED_EDGE('',*,*,#205,.T.);
#140=ORIENTED_EDGE('',*,*,#194,.F.);
#141=ORIENTED_EDGE('',*,*,#196,.F.);
#142=ORIENTED_EDGE('',*,*,#198,.F.);
#143=ORIENTED_EDGE('',*,*,#200,.F.);
#144=ORIENTED_EDGE('',*,*,#202,.F.);
#145=ORIENTED_EDGE('',*,*,#192,.F.);
#146=ORIENTED_EDGE('',*,*,#206,.T.);
#147=ORIENTED_EDGE('',*,*,#191,.T.);
#148=ORIENTED_EDGE('',*,*,#207,.F.);
#149=ORIENTED_EDGE('',*,*,#208,.T.);
#150=ORIENTED_EDGE('',*,*,#209,.T.);
#151=ORIENTED_EDGE('',*,*,#193,.T.);
#152=ORIENTED_EDGE('',*,*,#209,.F.);
#153=ORIENTED_EDGE('',*,*,#210,.T.);
#154=ORIENTED_EDGE('',*,*,#211,.T.);
#155=ORIENTED_EDGE('',*,*,#195,.T.);
#156=ORIENTED_EDGE('',*,*,#211,.F.);
#157=ORIENTED_EDGE('',*,*,#212,.T.);
#158=ORIENTED_EDGE('',*,*,#213,.T.);
#159=ORIENTED_EDGE('',*,*,#197,.T.);
#160=ORIENTED_EDGE('',*,*,#213,.F.);
#161=ORIENTED_EDGE('',*,*,#214,.T.);
#162=ORIENTED_EDGE('',*,*,#215,.T.);
#163=ORIENTED_EDGE('',*,*,#199,.T.);
#164=ORIENTED_EDGE('',*,*,#215,.F.);
#165=ORIENTED_EDGE('',*,*,#216,.T.);
#166=ORIENTED_EDGE('',*,*,#217,.T.);
#167=ORIENTED_EDGE('',*,*,#201,.T.);
#168=ORIENTED_EDGE('',*,*,#217,.F.);
#169=ORIENTED_EDGE('',*,*,#218,.T.);
#170=ORIENTED_EDGE('',*,*,#207,.T.);
#171=ORIENTED_EDGE('',*,*,#208,.F.);
#172=ORIENTED_EDGE('',*,*,#218,.F.);
#173=ORIENTED_EDGE('',*,*,#216,.F.);
#174=ORIENTED_EDGE('',*,*,#214,.F.);
#175=ORIENTED_EDGE('',*,*,#212,.F.);
#176=ORIENTED_EDGE('',*,*,#210,.F.);
#177=EDGE_CURVE('',#219,#219,#249,.T.);
#178=EDGE_CURVE('',#220,#220,#250,.T.);
#179=EDGE_CURVE('',#221,#221,#83,.T.);
#180=EDGE_CURVE('',#222,#222,#84,.T.);
#181=EDGE_CURVE('',#223,#223,#85,.T.);
#182=EDGE_CURVE('',#224,#224,#251,.T.);
#183=EDGE_CURVE('',#225,#225,#252,.T.);
#184=EDGE_CURVE('',#226,#226,#86,.T.);
#185=EDGE_CURVE('',#227,#227,#253,.T.);
#186=EDGE_CURVE('',#228,#228,#254,.T.);
#187=EDGE_CURVE('',#229,#229,#255,.T.);
#188=EDGE_CURVE('',#230,#230,#256,.T.);
#189=EDGE_CURVE('',#231,#231,#257,.T.);
#190=EDGE_CURVE('',#232,#232,#258,.T.);
#191=EDGE_CURVE('',#233,#234,#87,.T.);
#192=EDGE_CURVE('',#233,#234,#259,.T.);
#193=EDGE_CURVE('',#235,#233,#88,.T.);
#194=EDGE_CURVE('',#235,#233,#260,.T.);
#195=EDGE_CURVE('',#236,#235,#89,.T.);
#196=EDGE_CURVE('',#236,#235,#261,.T.);
#197=EDGE_CURVE('',#237,#236,#90,.T.);
#198=EDGE_CURVE('',#237,#236,#262,.T.);
#199=EDGE_CURVE('',#238,#237,#91,.T.);
#200=EDGE_CURVE('',#238,#237,#263,.T.);
#201=EDGE_CURVE('',#234,#238,#92,.T.);
#202=EDGE_CURVE('',#234,#238,#264,.T.);
#203=EDGE_CURVE('',#239,#239,#265,.T.);
#204=EDGE_CURVE('',#240,#240,#266,.T.);
#205=EDGE_CURVE('',#241,#241,#267,.T.);
#206=EDGE_CURVE('',#242,#242,#268,.T.);
#207=EDGE_CURVE('',#243,#234,#18,.T.);
#208=EDGE_CURVE('',#243,#244,#19,.T.);
#209=EDGE_CURVE('',#244,#233,#20,.T.);
#210=EDGE_CURVE('',#244,#245,#21,.T.);
#211=EDGE_CURVE('',#245,#235,#22,.T.);
#212=EDGE_CURVE('',#245,#246,#23,.T.);
#213=EDGE_CURVE('',#246,#236,#24,.T.);
#214=EDGE_CURVE('',#246,#247,#25,.T.);
#215=EDGE_CURVE('',#247,#237,#26,.T.);
#216=EDGE_CURVE('',#247,#248,#27,.T.);
#217=EDGE_CURVE('',#248,#238,#28,.T.);
#218=EDGE_CURVE('',#248,#243,#29,.T.);
#219=VERTEX_POINT('',#606);
#220=VERTEX_POINT('',#608);
#221=VERTEX_POINT('',#624);
#222=VERTEX_POINT('',#640);
#223=VERTEX_POINT('',#661);
#224=VERTEX_POINT('',#663);
#225=VERTEX_POINT('',#665);
#226=VERTEX_POINT('',#685);
#227=VERTEX_POINT('',#688);
#228=VERTEX_POINT('',#690);
#229=VERTEX_POINT('',#694);
#230=VERTEX_POINT('',#697);
#231=VERTEX_POINT('',#702);
#232=VERTEX_POINT('',#706);
#233=VERTEX_POINT('',#715);
#234=VERTEX_POINT('',#716);
#235=VERTEX_POINT('',#724);
#236=VERTEX_POINT('',#732);
#237=VERTEX_POINT('',#740);
#238=VERTEX_POINT('',#748);
#239=VERTEX_POINT('',#759);
#240=VERTEX_POINT('',#762);
#241=VERTEX_POINT('',#765);
#242=VERTEX_POINT('',#768);
#243=VERTEX_POINT('',#772);
#244=VERTEX_POINT('',#774);
#245=VERTEX_POINT('',#778);
#246=VERTEX_POINT('',#782);
#247=VERTEX_POINT('',#786);
#248=VERTEX_POINT('',#790);
#249=CIRCLE('',#431,15.);
#250=CIRCLE('',#432,15.);
#251=CIRCLE('',#434,5.);
#252=CIRCLE('',#435,5.);
#253=CIRCLE('',#437,6.);
#254=CIRCLE('',#438,14.);
#255=CIRCLE('',#441,14.);
#256=CIRCLE('',#443,6.);
#257=CIRCLE('',#447,3.3235);
#258=CIRCLE('',#450,3.32350000000001);
#259=CIRCLE('',#454,2.3094010767585);
#260=CIRCLE('',#456,2.3094010767585);
#261=CIRCLE('',#458,2.3094010767585);
#262=CIRCLE('',#460,2.3094010767585);
#263=CIRCLE('',#462,2.3094010767585);
#264=CIRCLE('',#464,2.3094010767585);
#265=CIRCLE('',#466,2.75);
#266=CIRCLE('',#468,4.);
#267=CIRCLE('',#470,4.);
#268=CIRCLE('',#472,3.233);
#269=EDGE_LOOP('',(#93));
#270=EDGE_LOOP('',(#94));
#271=EDGE_LOOP('',(#95));
#272=EDGE_LOOP('',(#96));
#273=EDGE_LOOP('',(#97));
#274=EDGE_LOOP('',(#98));
#275=EDGE_LOOP('',(#99));
#276=EDGE_LOOP('',(#100));
#277=EDGE_LOOP('',(#101));
#278=EDGE_LOOP('',(#102));
#279=EDGE_LOOP('',(#103));
#280=EDGE_LOOP('',(#104));
#281=EDGE_LOOP('',(#105));
#282=EDGE_LOOP('',(#106));
#283=EDGE_LOOP('',(#107));
#284=EDGE_LOOP('',(#108));
#285=EDGE_LOOP('',(#109));
#286=EDGE_LOOP('',(#110));
#287=EDGE_LOOP('',(#111));
#288=EDGE_LOOP('',(#112));
#289=EDGE_LOOP('',(#113));
#290=EDGE_LOOP('',(#114));
#291=EDGE_LOOP('',(#115));
#292=EDGE_LOOP('',(#116));
#293=EDGE_LOOP('',(#117));
#294=EDGE_LOOP('',(#118));
#295=EDGE_LOOP('',(#119));
#296=EDGE_LOOP('',(#120));
#297=EDGE_LOOP('',(#121,#122));
#298=EDGE_LOOP('',(#123,#124));
#299=EDGE_LOOP('',(#125,#126));
#300=EDGE_LOOP('',(#127,#128));
#301=EDGE_LOOP('',(#129,#130));
#302=EDGE_LOOP('',(#131,#132));
#303=EDGE_LOOP('',(#133));
#304=EDGE_LOOP('',(#134));
#305=EDGE_LOOP('',(#135));
#306=EDGE_LOOP('',(#136));
#307=EDGE_LOOP('',(#137));
#308=EDGE_LOOP('',(#138));
#309=EDGE_LOOP('',(#139));
#310=EDGE_LOOP('',(#140,#141,#142,#143,#144,#145));
#311=EDGE_LOOP('',(#146));
#312=EDGE_LOOP('',(#147,#148,#149,#150));
#313=EDGE_LOOP('',(#151,#152,#153,#154));
#314=EDGE_LOOP('',(#155,#156,#157,#158));
#315=EDGE_LOOP('',(#159,#160,#161,#162));
#316=EDGE_LOOP('',(#163,#164,#165,#166));
#317=EDGE_LOOP('',(#167,#168,#169,#170));
#318=EDGE_LOOP('',(#171,#172,#173,#174,#175,#176));
#319=FACE_BOUND('',#269,.T.);
#320=FACE_BOUND('',#270,.T.);
#321=FACE_BOUND('',#271,.T.);
#322=FACE_BOUND('',#272,.T.);
#323=FACE_BOUND('',#273,.T.);
#324=FACE_BOUND('',#274,.T.);
#325=FACE_BOUND('',#275,.T.);
#326=FACE_BOUND('',#276,.T.);
#327=FACE_BOUND('',#277,.T.);
#328=FACE_BOUND('',#278,.T.);
#329=FACE_BOUND('',#279,.T.);
#330=FACE_BOUND('',#280,.T.);
#331=FACE_BOUND('',#281,.T.);
#332=FACE_BOUND('',#282,.T.);
#333=FACE_BOUND('',#283,.T.);
#334=FACE_BOUND('',#284,.T.);
#335=FACE_BOUND('',#285,.T.);
#336=FACE_BOUND('',#286,.T.);
#337=FACE_BOUND('',#287,.T.);
#338=FACE_BOUND('',#288,.T.);
#339=FACE_BOUND('',#289,.T.);
#340=FACE_BOUND('',#290,.T.);
#341=FACE_BOUND('',#291,.T.);
#342=FACE_BOUND('',#292,.T.);
#343=FACE_BOUND('',#293,.T.);
#344=FACE_BOUND('',#294,.T.);
#345=FACE_BOUND('',#295,.T.);
#346=FACE_BOUND('',#296,.T.);
#347=FACE_BOUND('',#297,.T.);
#348=FACE_BOUND('',#298,.T.);
#349=FACE_BOUND('',#299,.T.);
#350=FACE_BOUND('',#300,.T.);
#351=FACE_BOUND('',#301,.T.);
#352=FACE_BOUND('',#302,.T.);
#353=FACE_BOUND('',#303,.T.);
#354=FACE_BOUND('',#304,.T.);
#355=FACE_BOUND('',#305,.T.);
#356=FACE_BOUND('',#306,.T.);
#357=FACE_BOUND('',#307,.T.);
#358=FACE_BOUND('',#308,.T.);
#359=FACE_BOUND('',#309,.T.);
#360=FACE_BOUND('',#310,.T.);
#361=FACE_BOUND('',#311,.T.);
#362=FACE_BOUND('',#312,.T.);
#363=FACE_BOUND('',#313,.T.);
#364=FACE_BOUND('',#314,.T.);
#365=FACE_BOUND('',#315,.T.);
#366=FACE_BOUND('',#316,.T.);
#367=FACE_BOUND('',#317,.T.);
#368=FACE_BOUND('',#318,.T.);
#369=CYLINDRICAL_SURFACE('',#430,15.);
#370=CYLINDRICAL_SURFACE('',#433,5.);
#371=CYLINDRICAL_SURFACE('',#448,3.3235);
#372=CYLINDRICAL_SURFACE('',#451,3.32350000000001);
#373=CYLINDRICAL_SURFACE('',#469,4.);
#374=ADVANCED_FACE('',(#319,#320,#321,#322),#369,.T.);
#375=ADVANCED_FACE('',(#323,#324,#325,#326),#370,.F.);
#376=ADVANCED_FACE('',(#327,#328),#72,.F.);
#377=ADVANCED_FACE('',(#329,#330),#58,.T.);
#378=ADVANCED_FACE('',(#331,#332),#59,.T.);
#379=ADVANCED_FACE('',(#333,#334),#73,.F.);
#380=ADVANCED_FACE('',(#335,#336),#60,.F.);
#381=ADVANCED_FACE('',(#337,#338),#61,.F.);
#382=ADVANCED_FACE('',(#339,#340),#62,.F.);
#383=ADVANCED_FACE('',(#341,#342),#371,.F.);
#384=ADVANCED_FACE('',(#343,#344),#63,.F.);
#385=ADVANCED_FACE('',(#345,#346),#372,.F.);
#386=ADVANCED_FACE('',(#347),#64,.F.);
#387=ADVANCED_FACE('',(#348),#65,.F.);
#388=ADVANCED_FACE('',(#349),#66,.F.);
#389=ADVANCED_FACE('',(#350),#67,.F.);
#390=ADVANCED_FACE('',(#351),#68,.F.);
#391=ADVANCED_FACE('',(#352),#69,.F.);
#392=ADVANCED_FACE('',(#353),#74,.F.);
#393=ADVANCED_FACE('',(#354,#355),#70,.T.);
#394=ADVANCED_FACE('',(#356,#357),#373,.T.);
#395=ADVANCED_FACE('',(#358,#359),#71,.T.);
#396=ADVANCED_FACE('',(#360,#361),#75,.F.);
#397=ADVANCED_FACE('',(#362),#76,.T.);
#398=ADVANCED_FACE('',(#363),#77,.T.);
#399=ADVANCED_FACE('',(#364),#78,.T.);
#400=ADVANCED_FACE('',(#365),#79,.T.);
#401=ADVANCED_FACE('',(#366),#80,.T.);
#402=ADVANCED_FACE('',(#367),#81,.T.);
#403=ADVANCED_FACE('',(#368),#82,.F.);
#404=CLOSED_SHELL('',(#374,#375,#376,#377,#378,#379,#380,#381,#382,#383,
#384,#385));
#405=CLOSED_SHELL('',(#386,#387,#388,#389,#390,#391,#392,#393,#394,#395,
#396,#397,#398,#399,#400,#401,#402,#403));
#406=STYLED_ITEM('',(#408),#421);
#407=STYLED_ITEM('',(#409),#422);
#408=PRESENTATION_STYLE_ASSIGNMENT((#410));
#409=PRESENTATION_STYLE_ASSIGNMENT((#411));
#410=SURFACE_STYLE_USAGE(.BOTH.,#412);
#411=SURFACE_STYLE_USAGE(.BOTH.,#413);
#412=SURFACE_SIDE_STYLE('',(#414));
#413=SURFACE_SIDE_STYLE('',(#415));
#414=SURFACE_STYLE_FILL_AREA(#416);
#415=SURFACE_STYLE_FILL_AREA(#417);
#416=FILL_AREA_STYLE('',(#418));
#417=FILL_AREA_STYLE('',(#419));
#418=FILL_AREA_STYLE_COLOUR('',#420);
#419=FILL_AREA_STYLE_COLOUR('',#420);
#420=COLOUR_RGB('',0.689999997615814,0.689999997615814,0.689999997615814);
#421=MANIFOLD_SOLID_BREP('DSS30-10part',#404);
#422=MANIFOLD_SOLID_BREP(
'Hexagon socket set screw with flat point DIN 913 - M8x8',#405);
#423=SHAPE_DEFINITION_REPRESENTATION(#807,#426);
#424=SHAPE_DEFINITION_REPRESENTATION(#808,#427);
#425=SHAPE_DEFINITION_REPRESENTATION(#810,#428);
#426=SHAPE_REPRESENTATION('DSS30-10',(#429,#452,#481,#482),#798);
#427=SHAPE_REPRESENTATION('DSS30-10part',(#429),#799);
#428=SHAPE_REPRESENTATION(
'Hexagon socket set screw with flat point DIN 913 - M8x8',(#429),#800);
#429=AXIS2_PLACEMENT_3D('',#603,#483,#484);
#430=AXIS2_PLACEMENT_3D('',#604,#485,#486);
#431=AXIS2_PLACEMENT_3D('',#605,#487,#488);
#432=AXIS2_PLACEMENT_3D('',#607,#489,#490);
#433=AXIS2_PLACEMENT_3D('',#641,#491,#492);
#434=AXIS2_PLACEMENT_3D('',#662,#493,#494);
#435=AXIS2_PLACEMENT_3D('',#664,#495,#496);
#436=AXIS2_PLACEMENT_3D('',#686,#497,#498);
#437=AXIS2_PLACEMENT_3D('',#687,#499,#500);
#438=AXIS2_PLACEMENT_3D('',#689,#501,#502);
#439=AXIS2_PLACEMENT_3D('',#691,#503,#504);
#440=AXIS2_PLACEMENT_3D('',#692,#505,#506);
#441=AXIS2_PLACEMENT_3D('',#693,#507,#508);
#442=AXIS2_PLACEMENT_3D('',#695,#509,#510);
#443=AXIS2_PLACEMENT_3D('',#696,#511,#512);
#444=AXIS2_PLACEMENT_3D('',#698,#513,#514);
#445=AXIS2_PLACEMENT_3D('',#699,#515,#516);
#446=AXIS2_PLACEMENT_3D('',#700,#517,#518);
#447=AXIS2_PLACEMENT_3D('',#701,#519,#520);
#448=AXIS2_PLACEMENT_3D('',#703,#521,#522);
#449=AXIS2_PLACEMENT_3D('',#704,#523,#524);
#450=AXIS2_PLACEMENT_3D('',#705,#525,#526);
#451=AXIS2_PLACEMENT_3D('',#707,#527,#528);
#452=AXIS2_PLACEMENT_3D('',#708,#529,#530);
#453=AXIS2_PLACEMENT_3D('',#709,#531,#532);
#454=AXIS2_PLACEMENT_3D('',#717,#533,#534);
#455=AXIS2_PLACEMENT_3D('',#718,#535,#536);
#456=AXIS2_PLACEMENT_3D('',#725,#537,#538);
#457=AXIS2_PLACEMENT_3D('',#726,#539,#540);
#458=AXIS2_PLACEMENT_3D('',#733,#541,#542);
#459=AXIS2_PLACEMENT_3D('',#734,#543,#544);
#460=AXIS2_PLACEMENT_3D('',#741,#545,#546);
#461=AXIS2_PLACEMENT_3D('',#742,#547,#548);
#462=AXIS2_PLACEMENT_3D('',#749,#549,#550);
#463=AXIS2_PLACEMENT_3D('',#750,#551,#552);
#464=AXIS2_PLACEMENT_3D('',#756,#553,#554);
#465=AXIS2_PLACEMENT_3D('',#757,#555,#556);
#466=AXIS2_PLACEMENT_3D('',#758,#557,#558);
#467=AXIS2_PLACEMENT_3D('',#760,#559,#560);
#468=AXIS2_PLACEMENT_3D('',#761,#561,#562);
#469=AXIS2_PLACEMENT_3D('',#763,#563,#564);
#470=AXIS2_PLACEMENT_3D('',#764,#565,#566);
#471=AXIS2_PLACEMENT_3D('',#766,#567,#568);
#472=AXIS2_PLACEMENT_3D('',#767,#569,#570);
#473=AXIS2_PLACEMENT_3D('',#769,#571,#572);
#474=AXIS2_PLACEMENT_3D('',#770,#573,#574);
#475=AXIS2_PLACEMENT_3D('',#776,#578,#579);
#476=AXIS2_PLACEMENT_3D('',#780,#582,#583);
#477=AXIS2_PLACEMENT_3D('',#784,#586,#587);
#478=AXIS2_PLACEMENT_3D('',#788,#590,#591);
#479=AXIS2_PLACEMENT_3D('',#792,#594,#595);
#480=AXIS2_PLACEMENT_3D('',#794,#597,#598);
#481=AXIS2_PLACEMENT_3D('',#795,#599,#600);
#482=AXIS2_PLACEMENT_3D('',#796,#601,#602);
#483=DIRECTION('',(0.,0.,1.));
#484=DIRECTION('',(1.,0.,0.));
#485=DIRECTION('',(1.,0.,0.));
#486=DIRECTION('',(0.,0.,-1.));
#487=DIRECTION('',(1.,0.,0.));
#488=DIRECTION('',(0.,0.,-1.));
#489=DIRECTION('',(1.,0.,0.));
#490=DIRECTION('',(0.,0.,-1.));
#491=DIRECTION('',(1.,0.,0.));
#492=DIRECTION('',(0.,0.,-1.));
#493=DIRECTION('',(1.,0.,0.));
#494=DIRECTION('',(0.,0.,-1.));
#495=DIRECTION('',(1.,0.,0.));
#496=DIRECTION('',(0.,0.,-1.));
#497=DIRECTION('',(1.,0.,0.));
#498=DIRECTION('',(0.,0.,-1.));
#499=DIRECTION('',(1.,0.,0.));
#500=DIRECTION('',(0.,0.,-1.));
#501=DIRECTION('',(1.,0.,0.));
#502=DIRECTION('',(0.,0.,-1.));
#503=DIRECTION('',(1.,0.,0.));
#504=DIRECTION('',(0.,0.,-1.));
#505=DIRECTION('',(-1.,0.,0.));
#506=DIRECTION('',(0.,0.,1.));
#507=DIRECTION('',(1.,0.,0.));
#508=DIRECTION('',(0.,0.,-1.));
#509=DIRECTION('',(-1.,0.,0.));
#510=DIRECTION('',(0.,0.,1.));
#511=DIRECTION('',(1.,0.,0.));
#512=DIRECTION('',(0.,0.,-1.));
#513=DIRECTION('',(-1.,0.,0.));
#514=DIRECTION('',(0.,0.,1.));
#515=DIRECTION('',(1.,0.,0.));
#516=DIRECTION('',(0.,0.,-1.));
#517=DIRECTION('',(0.,1.,0.));
#518=DIRECTION('',(0.,0.,1.));
#519=DIRECTION('',(0.,-1.,0.));
#520=DIRECTION('',(0.,0.,-1.));
#521=DIRECTION('',(0.,-1.,0.));
#522=DIRECTION('',(0.,0.,-1.));
#523=DIRECTION('',(0.,-1.,0.));
#524=DIRECTION('',(0.,0.,-1.));
#525=DIRECTION('',(0.,-1.,0.));
#526=DIRECTION('',(0.,0.,-1.));
#527=DIRECTION('',(0.,-1.,0.));
#528=DIRECTION('',(0.,0.,-1.));
#529=DIRECTION('',(0.,0.,1.));
#530=DIRECTION('',(1.,0.,0.));
#531=DIRECTION('',(-1.,-6.12323399573677E-17,0.));
#532=DIRECTION('',(6.12323399573677E-17,-1.,0.));
#533=DIRECTION('',(-1.,-6.12323399573677E-17,0.));
#534=DIRECTION('',(6.12323399573677E-17,-1.,0.));
#535=DIRECTION('',(-1.,-6.12323399573677E-17,0.));
#536=DIRECTION('',(6.12323399573677E-17,-1.,0.));
#537=DIRECTION('',(-1.,-6.12323399573677E-17,0.));
#538=DIRECTION('',(6.12323399573677E-17,-1.,0.));
#539=DIRECTION('',(-1.,-6.12323399573677E-17,0.));
#540=DIRECTION('',(6.12323399573677E-17,-1.,0.));
#541=DIRECTION('',(-1.,-6.12323399573677E-17,0.));
#542=DIRECTION('',(6.12323399573677E-17,-1.,0.));
#543=DIRECTION('',(-1.,-6.12323399573677E-17,0.));
#544=DIRECTION('',(6.12323399573677E-17,-1.,0.));
#545=DIRECTION('',(-1.,-6.12323399573677E-17,0.));
#546=DIRECTION('',(6.12323399573677E-17,-1.,0.));
#547=DIRECTION('',(-1.,-6.12323399573677E-17,0.));
#548=DIRECTION('',(6.12323399573677E-17,-1.,0.));
#549=DIRECTION('',(-1.,-6.12323399573677E-17,0.));
#550=DIRECTION('',(6.12323399573677E-17,-1.,0.));
#551=DIRECTION('',(-1.,-6.12323399573677E-17,0.));
#552=DIRECTION('',(6.12323399573677E-17,-1.,0.));
#553=DIRECTION('',(-1.,-6.12323399573677E-17,0.));
#554=DIRECTION('',(6.12323399573677E-17,-1.,0.));
#555=DIRECTION('',(-1.,-6.12323399573677E-17,0.));
#556=DIRECTION('',(6.12323399573677E-17,-1.,0.));
#557=DIRECTION('',(-1.,-6.12323399573677E-17,0.));
#558=DIRECTION('',(6.12323399573677E-17,-1.,0.));
#559=DIRECTION('',(-1.,-6.12323399573677E-17,0.));
#560=DIRECTION('',(6.12323399573677E-17,-1.,0.));
#561=DIRECTION('',(-1.,-6.12323399573677E-17,0.));
#562=DIRECTION('',(6.12323399573677E-17,-1.,0.));
#563=DIRECTION('',(-1.,-6.12323399573677E-17,0.));
#564=DIRECTION('',(6.12323399573677E-17,-1.,0.));
#565=DIRECTION('',(-1.,-6.12323399573677E-17,0.));
#566=DIRECTION('',(6.12323399573677E-17,-1.,0.));
#567=DIRECTION('',(1.,6.12323399573677E-17,0.));
#568=DIRECTION('',(-6.12323399573677E-17,1.,0.));
#569=DIRECTION('',(-1.,-6.12323399573677E-17,0.));
#570=DIRECTION('',(6.12323399573677E-17,-1.,0.));
#571=DIRECTION('',(1.,6.12323399573677E-17,0.));
#572=DIRECTION('',(-6.12323399573677E-17,1.,0.));
#573=DIRECTION('',(0.,-0.5,-0.866025403784439));
#574=DIRECTION('',(0.,0.866025403784439,-0.5));
#575=DIRECTION('',(-1.,0.,0.));
#576=DIRECTION('',(0.,-0.866025403784439,0.5));
#577=DIRECTION('',(-1.,0.,0.));
#578=DIRECTION('',(0.,0.5,-0.866025403784439));
#579=DIRECTION('',(0.,0.866025403784439,0.5));
#580=DIRECTION('',(0.,-0.866025403784439,-0.5));
#581=DIRECTION('',(-1.,0.,0.));
#582=DIRECTION('',(0.,1.,0.));
#583=DIRECTION('',(0.,0.,1.));
#584=DIRECTION('',(0.,0.,-1.));
#585=DIRECTION('',(-1.,0.,0.));
#586=DIRECTION('',(0.,0.5,0.866025403784439));
#587=DIRECTION('',(0.,-0.866025403784439,0.5));
#588=DIRECTION('',(0.,0.866025403784439,-0.5));
#589=DIRECTION('',(-1.,0.,0.));
#590=DIRECTION('',(0.,-0.5,0.866025403784439));
#591=DIRECTION('',(0.,-0.866025403784439,-0.5));
#592=DIRECTION('',(0.,0.866025403784439,0.5));
#593=DIRECTION('',(-1.,0.,0.));
#594=DIRECTION('',(0.,-1.,0.));
#595=DIRECTION('',(0.,0.,-1.));
#596=DIRECTION('',(0.,0.,1.));
#597=DIRECTION('',(1.,0.,0.));
#598=DIRECTION('',(0.,0.,-1.));
#599=DIRECTION('',(-1.,0.,0.));
#600=DIRECTION('',(0.,-1.,0.));
#601=DIRECTION('',(-1.,0.,0.));
#602=DIRECTION('',(0.,1.,0.));
#603=CARTESIAN_POINT('',(0.,0.,0.));
#604=CARTESIAN_POINT('',(14.,0.,0.));
#605=CARTESIAN_POINT('',(0.999999999999999,0.,0.));
#606=CARTESIAN_POINT('',(0.999999999999999,0.,-15.));
#607=CARTESIAN_POINT('',(13.,0.,0.));
#608=CARTESIAN_POINT('',(13.,0.,-15.));
#609=CARTESIAN_POINT('',(7.06779080968815,14.4741039469622,-3.91009404264451));
#610=CARTESIAN_POINT('',(4.56920958394449,14.7035134122408,-3.09324913884266));
#611=CARTESIAN_POINT('',(3.2713372367106,14.9413426823483,-1.54250835804028));
#612=CARTESIAN_POINT('',(2.88024497397012,15.0260106394987,-0.0696818366818637));
#613=CARTESIAN_POINT('',(3.21175733723955,14.9537570428939,1.42831296219796));
#614=CARTESIAN_POINT('',(4.46023665543447,14.7198099742976,3.02433468875612));
#615=CARTESIAN_POINT('',(6.93276671203597,14.4744902900947,3.90882973740914));
#616=CARTESIAN_POINT('',(9.42708444132374,14.7031569097183,3.09284462622474));
#617=CARTESIAN_POINT('',(10.7217347266331,14.9399462637615,1.5544882483203));
#618=CARTESIAN_POINT('',(11.1209044124313,15.0262304929404,0.0787604832600525));
#619=CARTESIAN_POINT('',(10.7894562985848,14.9540389616641,-1.42601771019527));
#620=CARTESIAN_POINT('',(9.54519560802444,14.7206243466836,-3.02008890128867));
#621=CARTESIAN_POINT('',(7.06779080968815,14.4741039469622,-3.91009404264451));
#622=CARTESIAN_POINT('',(4.56920958394449,14.7035134122408,-3.09324913884266));
#623=CARTESIAN_POINT('',(3.2713372367106,14.9413426823483,-1.54250835804028));
#624=CARTESIAN_POINT('',(4.3031575499161,14.7674958712581,-2.63079187216199));
#625=CARTESIAN_POINT('',(3.2670579677779,-14.9421541487718,-1.53884706797201));
#626=CARTESIAN_POINT('',(4.57198884458024,-14.7029991651876,-3.09553307991622));
#627=CARTESIAN_POINT('',(7.06417380862982,-14.474674838324,-3.90784502332383));
#628=CARTESIAN_POINT('',(9.53559588403711,-14.7193657224378,-3.02479777107133));
#629=CARTESIAN_POINT('',(10.7796141324908,-14.9520049078673,-1.4422325618216));
#630=CARTESIAN_POINT('',(11.1207619513901,-15.0262177515321,0.0475208889784947));
#631=CARTESIAN_POINT('',(10.7352596408423,-14.9426865409333,1.53278742331774));
#632=CARTESIAN_POINT('',(9.43789722225262,-14.7044576890456,3.08909203187493));
#633=CARTESIAN_POINT('',(6.94103676012556,-14.4742953383822,3.90951739216287));
#634=CARTESIAN_POINT('',(4.46702306194821,-14.718956957349,3.02658398812414));
#635=CARTESIAN_POINT('',(3.2210042759747,-14.9518602838646,1.44421053941909));
#636=CARTESIAN_POINT('',(2.87854345392874,-15.026378709497,-0.0491123707132132));
#637=CARTESIAN_POINT('',(3.2670579677779,-14.9421541487718,-1.53884706797201));
#638=CARTESIAN_POINT('',(4.57198884458024,-14.7029991651876,-3.09553307991622));
#639=CARTESIAN_POINT('',(7.06417380862982,-14.474674838324,-3.90784502332383));
#640=CARTESIAN_POINT('',(4.3031575499161,-14.7674958712581,-2.63079187216199));
#641=CARTESIAN_POINT('',(14.,0.,0.));
#642=CARTESIAN_POINT('',(8.34656242751328,3.91497480849844,-3.13198785521501));
#643=CARTESIAN_POINT('',(6.99784629160743,3.64636818583614,-3.41860862935203));
#644=CARTESIAN_POINT('',(5.66205240605698,3.912863649316,-3.13457762737688));
#645=CARTESIAN_POINT('',(4.60732077611791,4.41644911541645,-2.41788176681633));
#646=CARTESIAN_POINT('',(3.87184352246966,4.86730105248626,-1.35762144434894));
#647=CARTESIAN_POINT('',(3.58200831791683,5.06429875077175,-0.0193052241222442));
#648=CARTESIAN_POINT('',(3.85937854385523,4.87533422186987,1.33392988070657));
#649=CARTESIAN_POINT('',(4.59521835115788,4.42357396144393,2.40535536795544));
#650=CARTESIAN_POINT('',(5.63973532039692,3.92058092673661,3.12544129110902));
#651=CARTESIAN_POINT('',(6.98408192029373,3.64623412811071,3.41871464971249));
#652=CARTESIAN_POINT('',(8.32666235769947,3.90800484884412,3.14046284982283));
#653=CARTESIAN_POINT('',(9.38920099792805,4.41431661749834,2.42220874488207));
#654=CARTESIAN_POINT('',(10.1286202344541,4.86756979659604,1.35889834092538));
#655=CARTESIAN_POINT('',(10.4183464081151,5.06455343462156,0.0128241922150897));
#656=CARTESIAN_POINT('',(10.1388645527641,4.87413033303435,-1.3383069634496));
#657=CARTESIAN_POINT('',(9.39803975575593,4.4196288951012,-2.41322872997655));
#658=CARTESIAN_POINT('',(8.34656242751328,3.91497480849844,-3.13198785521501));
#659=CARTESIAN_POINT('',(6.99784629160743,3.64636818583614,-3.41860862935203));
#660=CARTESIAN_POINT('',(5.66205240605698,3.912863649316,-3.13457762737688));
#661=CARTESIAN_POINT('',(7.,3.73555186685984,-3.3235));
#662=CARTESIAN_POINT('',(13.,0.,0.));
#663=CARTESIAN_POINT('',(13.,0.,-5.));
#664=CARTESIAN_POINT('',(0.999999999999999,0.,0.));
#665=CARTESIAN_POINT('',(0.999999999999999,0.,-5.));
#666=CARTESIAN_POINT('',(5.65343757248672,-3.91497480849843,-3.13198785521502));
#667=CARTESIAN_POINT('',(7.00215370839256,-3.64636818583614,-3.41860862935203));
#668=CARTESIAN_POINT('',(8.33794759394302,-3.91286364931599,-3.13457762737689));
#669=CARTESIAN_POINT('',(9.39267922388209,-4.41644911541644,-2.41788176681633));
#670=CARTESIAN_POINT('',(10.1281564775304,-4.86730105248626,-1.35762144434894));
#671=CARTESIAN_POINT('',(10.4179916820832,-5.06429875077174,-0.0193052241222478));
#672=CARTESIAN_POINT('',(10.1406214561448,-4.87533422186987,1.33392988070657));
#673=CARTESIAN_POINT('',(9.40478164884213,-4.42357396144393,2.40535536795545));
#674=CARTESIAN_POINT('',(8.36026467960308,-3.92058092673661,3.12544129110903));
#675=CARTESIAN_POINT('',(7.01591807970628,-3.6462341281107,3.4187146497125));
#676=CARTESIAN_POINT('',(5.67333764230051,-3.90800484884412,3.14046284982283));
#677=CARTESIAN_POINT('',(4.61079900207195,-4.41431661749833,2.42220874488208));
#678=CARTESIAN_POINT('',(3.87137976554588,-4.86756979659604,1.35889834092539));
#679=CARTESIAN_POINT('',(3.58165359188488,-5.06455343462156,0.012824192215082));
#680=CARTESIAN_POINT('',(3.86113544723589,-4.87413033303434,-1.3383069634496));
#681=CARTESIAN_POINT('',(4.60196024424407,-4.4196288951012,-2.41322872997655));
#682=CARTESIAN_POINT('',(5.65343757248672,-3.91497480849843,-3.13198785521502));
#683=CARTESIAN_POINT('',(7.00215370839256,-3.64636818583614,-3.41860862935203));
#684=CARTESIAN_POINT('',(8.33794759394302,-3.91286364931599,-3.13457762737689));
#685=CARTESIAN_POINT('',(7.,-3.73555186685983,-3.32350000000001));
#686=CARTESIAN_POINT('',(0.,0.,0.));
#687=CARTESIAN_POINT('',(0.,0.,0.));
#688=CARTESIAN_POINT('',(0.,0.,-6.));
#689=CARTESIAN_POINT('',(0.,0.,0.));
#690=CARTESIAN_POINT('',(0.,0.,-14.));
#691=CARTESIAN_POINT('',(0.,0.,0.));
#692=CARTESIAN_POINT('',(13.,0.,0.));
#693=CARTESIAN_POINT('',(14.,0.,0.));
#694=CARTESIAN_POINT('',(14.,0.,-14.));
#695=CARTESIAN_POINT('',(14.,14.,0.));
#696=CARTESIAN_POINT('',(14.,0.,0.));
#697=CARTESIAN_POINT('',(14.,0.,-6.));
#698=CARTESIAN_POINT('',(0.,0.,0.));
#699=CARTESIAN_POINT('',(13.,0.,0.));
#700=CARTESIAN_POINT('',(7.,15.,0.));
#701=CARTESIAN_POINT('',(7.,14.3235,0.));
#702=CARTESIAN_POINT('',(7.,14.3235,-3.3235));
#703=CARTESIAN_POINT('',(7.,1.,0.));
#704=CARTESIAN_POINT('',(7.,-14.3235,0.));
#705=CARTESIAN_POINT('',(7.,-14.3235,0.));
#706=CARTESIAN_POINT('',(7.,-14.3235,-3.32350000000001));
#707=CARTESIAN_POINT('',(7.,-15.,0.));
#708=CARTESIAN_POINT('',(0.,0.,0.));
#709=CARTESIAN_POINT('',(0.,0.,0.));
#710=CARTESIAN_POINT('',(1.73787574838109E-12,-2.16003244999136E-13,2.30940107675863));
#711=CARTESIAN_POINT('',(0.108853724128312,0.326561172379455,2.12086089597835));
#712=CARTESIAN_POINT('',(0.248342670043736,0.996386586480638,1.73413701283698));
#713=CARTESIAN_POINT('',(0.108989312002617,1.67303206399496,1.34347556424814));
#714=CARTESIAN_POINT('',(8.83721994179561E-13,2.00000000000013,1.15470053837918));
#715=CARTESIAN_POINT('',(0.,0.,2.3094010767585));
#716=CARTESIAN_POINT('',(-1.22464679914735E-16,2.,1.15470053837925));
#717=CARTESIAN_POINT('',(0.,0.,0.));
#718=CARTESIAN_POINT('',(0.,0.,0.));
#719=CARTESIAN_POINT('',(1.73802263911427E-12,-2.00000000000022,1.15470053837913));
#720=CARTESIAN_POINT('',(0.108853724128313,-1.67343882762055,1.34324071915941));
#721=CARTESIAN_POINT('',(0.248342670043736,-1.00361341351936,1.72996460230078));
#722=CARTESIAN_POINT('',(0.108989312002618,-0.326967936005043,2.12062605088961));
#723=CARTESIAN_POINT('',(8.84453928666891E-13,1.26384269424161E-13,2.30940107675858));
#724=CARTESIAN_POINT('',(0.,-2.,1.15470053837925));
#725=CARTESIAN_POINT('',(0.,0.,0.));
#726=CARTESIAN_POINT('',(0.,0.,0.));
#727=CARTESIAN_POINT('',(3.22656401036234E-16,-2.,-1.15470053837925));
#728=CARTESIAN_POINT('',(0.108417346699223,-2.,-0.779131832569524));
#729=CARTESIAN_POINT('',(0.248758577246591,-2.,0.00558931615311992));
#730=CARTESIAN_POINT('',(0.10859264604984,-2.,0.778524577805963));
#731=CARTESIAN_POINT('',(1.11977035979886E-14,-2.,1.15470053837926));
#732=CARTESIAN_POINT('',(0.,-2.,-1.15470053837925));
#733=CARTESIAN_POINT('',(0.,0.,0.));
#734=CARTESIAN_POINT('',(0.,0.,0.));
#735=CARTESIAN_POINT('',(1.73787574734712E-12,2.16003221010898E-13,-2.30940107675863));
#736=CARTESIAN_POINT('',(0.108853724128312,-0.326561172379455,-2.12086089597835));
#737=CARTESIAN_POINT('',(0.248342670043735,-0.996386586480637,-1.73413701283698));
#738=CARTESIAN_POINT('',(0.108989312002618,-1.67303206399496,-1.34347556424814));
#739=CARTESIAN_POINT('',(8.84225556507474E-13,-2.00000000000013,-1.15470053837918));
#740=CARTESIAN_POINT('',(0.,0.,-2.3094010767585));
#741=CARTESIAN_POINT('',(0.,0.,0.));
#742=CARTESIAN_POINT('',(0.,0.,0.));
#743=CARTESIAN_POINT('',(1.73777771258925E-12,2.00000000000022,-1.15470053837913));
#744=CARTESIAN_POINT('',(0.108853724128312,1.67343882762055,-1.34324071915941));
#745=CARTESIAN_POINT('',(0.248342670043735,1.00361341351936,-1.72996460230078));
#746=CARTESIAN_POINT('',(0.108989312002618,0.326967936005043,-2.12062605088961));
#747=CARTESIAN_POINT('',(8.84453929597469E-13,-1.26384266529029E-13,-2.30940107675858));
#748=CARTESIAN_POINT('',(0.,2.,-1.15470053837925));
#749=CARTESIAN_POINT('',(0.,0.,0.));
#750=CARTESIAN_POINT('',(0.,0.,0.));
#751=CARTESIAN_POINT('',(8.0736937044264E-17,2.,1.15470053837925));
#752=CARTESIAN_POINT('',(0.108417346699223,2.,0.779131832569523));
#753=CARTESIAN_POINT('',(0.248758577246591,2.,-0.00558931615311976));
#754=CARTESIAN_POINT('',(0.108592646049839,2.,-0.778524577805963));
#755=CARTESIAN_POINT('',(1.09436305233495E-14,2.,-1.15470053837926));
#756=CARTESIAN_POINT('',(0.,0.,0.));
#757=CARTESIAN_POINT('',(8.,4.89858719658941E-16,0.));
#758=CARTESIAN_POINT('',(8.,4.89858719658941E-16,0.));
#759=CARTESIAN_POINT('',(8.,-2.75,0.));
#760=CARTESIAN_POINT('',(8.,4.89858719658941E-16,0.));
#761=CARTESIAN_POINT('',(6.75,4.13318294712232E-16,0.));
#762=CARTESIAN_POINT('',(6.75,-4.,0.));
#763=CARTESIAN_POINT('',(1.33333333333333,8.16431199431569E-17,0.));
#764=CARTESIAN_POINT('',(0.442827656468444,2.71153736034002E-17,0.));
#765=CARTESIAN_POINT('',(0.442827656468445,-4.,0.));
#766=CARTESIAN_POINT('',(0.442827656468444,2.71153736034002E-17,0.));
#767=CARTESIAN_POINT('',(0.,0.,0.));
#768=CARTESIAN_POINT('',(1.9796415508217E-16,-3.233,0.));
#769=CARTESIAN_POINT('',(2.07402294789635E-16,-3.233,0.));
#770=CARTESIAN_POINT('',(5.,2.,1.15470053837925));
#771=CARTESIAN_POINT('',(5.,2.,1.15470053837925));
#772=CARTESIAN_POINT('',(5.,2.,1.15470053837925));
#773=CARTESIAN_POINT('',(5.,2.,1.15470053837925));
#774=CARTESIAN_POINT('',(5.,0.,2.3094010767585));
#775=CARTESIAN_POINT('',(5.,0.,2.3094010767585));
#776=CARTESIAN_POINT('',(5.,0.,2.3094010767585));
#777=CARTESIAN_POINT('',(5.,0.,2.3094010767585));
#778=CARTESIAN_POINT('',(5.,-2.,1.15470053837925));
#779=CARTESIAN_POINT('',(5.,-2.,1.15470053837925));
#780=CARTESIAN_POINT('',(5.,-2.,1.15470053837925));
#781=CARTESIAN_POINT('',(5.,-2.,1.15470053837925));
#782=CARTESIAN_POINT('',(5.,-2.,-1.15470053837925));
#783=CARTESIAN_POINT('',(5.,-2.,-1.15470053837925));
#784=CARTESIAN_POINT('',(5.,-2.,-1.15470053837925));
#785=CARTESIAN_POINT('',(5.,-2.,-1.15470053837925));
#786=CARTESIAN_POINT('',(5.,0.,-2.3094010767585));
#787=CARTESIAN_POINT('',(5.,0.,-2.3094010767585));
#788=CARTESIAN_POINT('',(5.,0.,-2.3094010767585));
#789=CARTESIAN_POINT('',(5.,0.,-2.3094010767585));
#790=CARTESIAN_POINT('',(5.,2.,-1.15470053837925));
#791=CARTESIAN_POINT('',(5.,2.,-1.15470053837925));
#792=CARTESIAN_POINT('',(5.,2.,-1.15470053837925));
#793=CARTESIAN_POINT('',(5.,2.,-1.15470053837925));
#794=CARTESIAN_POINT('',(5.,0.,0.));
#795=CARTESIAN_POINT('',(7.,15.,0.));
#796=CARTESIAN_POINT('',(7.,-15.,0.));
#797=MECHANICAL_DESIGN_GEOMETRIC_PRESENTATION_REPRESENTATION('',(#406,#407),
#798);
#798=(
GEOMETRIC_REPRESENTATION_CONTEXT(3)
GLOBAL_UNCERTAINTY_ASSIGNED_CONTEXT((#801))
GLOBAL_UNIT_ASSIGNED_CONTEXT((#806,#805,#804))
REPRESENTATION_CONTEXT('DSS30-10','TOP_LEVEL_ASSEMBLY_PART')
);
#799=(
GEOMETRIC_REPRESENTATION_CONTEXT(3)
GLOBAL_UNCERTAINTY_ASSIGNED_CONTEXT((#802))
GLOBAL_UNIT_ASSIGNED_CONTEXT((#806,#805,#804))
REPRESENTATION_CONTEXT('DSS30-10part','COMPONENT_PART')
);
#800=(
GEOMETRIC_REPRESENTATION_CONTEXT(3)
GLOBAL_UNCERTAINTY_ASSIGNED_CONTEXT((#803))
GLOBAL_UNIT_ASSIGNED_CONTEXT((#806,#805,#804))
REPRESENTATION_CONTEXT(
'Hexagon socket set screw with flat point DIN 913 - M8x8',
'COMPONENT_PART')
);
#801=UNCERTAINTY_MEASURE_WITH_UNIT(LENGTH_MEASURE(1.E-5),#806,
'DISTANCE_ACCURACY_VALUE','Maximum Tolerance applied to model');
#802=UNCERTAINTY_MEASURE_WITH_UNIT(LENGTH_MEASURE(1.E-5),#806,
'DISTANCE_ACCURACY_VALUE','Maximum Tolerance applied to model');
#803=UNCERTAINTY_MEASURE_WITH_UNIT(LENGTH_MEASURE(1.E-5),#806,
'DISTANCE_ACCURACY_VALUE','Maximum Tolerance applied to model');
#804=(
NAMED_UNIT(*)
SI_UNIT($,.STERADIAN.)
SOLID_ANGLE_UNIT()
);
#805=(
NAMED_UNIT(*)
PLANE_ANGLE_UNIT()
SI_UNIT($,.RADIAN.)
);
#806=(
LENGTH_UNIT()
NAMED_UNIT(*)
SI_UNIT(.MILLI.,.METRE.)
);
#807=PRODUCT_DEFINITION_SHAPE('','',#813);
#808=PRODUCT_DEFINITION_SHAPE('','',#814);
#809=PRODUCT_DEFINITION_SHAPE(' ','NAUO PRDDFN',#45);
#810=PRODUCT_DEFINITION_SHAPE('','',#815);
#811=PRODUCT_DEFINITION_SHAPE(' ','NAUO PRDDFN',#46);
#812=PRODUCT_DEFINITION_SHAPE(' ','NAUO PRDDFN',#47);
#813=PRODUCT_DEFINITION('','',#819,#816);
#814=PRODUCT_DEFINITION('','',#820,#817);
#815=PRODUCT_DEFINITION('','',#821,#818);
#816=PRODUCT_DEFINITION_CONTEXT('',#835,'design');
#817=PRODUCT_DEFINITION_CONTEXT('',#835,'design');
#818=PRODUCT_DEFINITION_CONTEXT('',#835,'design');
#819=PRODUCT_DEFINITION_FORMATION_WITH_SPECIFIED_SOURCE('','',#825,
 .NOT_KNOWN.);
#820=PRODUCT_DEFINITION_FORMATION_WITH_SPECIFIED_SOURCE('','',#826,
 .NOT_KNOWN.);
#821=PRODUCT_DEFINITION_FORMATION_WITH_SPECIFIED_SOURCE('','',#827,
 .NOT_KNOWN.);
#822=PRODUCT_RELATED_PRODUCT_CATEGORY('','',(#825));
#823=PRODUCT_RELATED_PRODUCT_CATEGORY('','',(#826));
#824=PRODUCT_RELATED_PRODUCT_CATEGORY('','',(#827));
#825=PRODUCT('DSS30-10','DSS30-10','DSS30-10',(#831));
#826=PRODUCT('DSS30-10part','DSS30-10part','DSS30-10part',(#832));
#827=PRODUCT('Hexagon socket set screw with flat point DIN 913 - M8x8',
'Hexagon socket set screw with flat point DIN 913 - M8x8',
'Hexagon socket set screw with flat point DIN 913 - M8x8',(#833));
#828=PRODUCT_CATEGORY('','');
#829=PRODUCT_CATEGORY('','');
#830=PRODUCT_CATEGORY('','');
#831=PRODUCT_CONTEXT('',#835,'mechanical');
#832=PRODUCT_CONTEXT('',#835,'mechanical');
#833=PRODUCT_CONTEXT('',#835,'mechanical');
#834=APPLICATION_PROTOCOL_DEFINITION('international standard',
'automotive_design',2010,#835);
#835=APPLICATION_CONTEXT(
'core data for automotive mechanical design processes');
ENDSEC;
END-ISO-10303-21;
