ISO-10303-21;
HEADER;
/* Generated by software containing ST-Developer
 * from STEP Tools, Inc. (www.steptools.com) 
 */
/* OPTION: using custom renumber hook */

FILE_DESCRIPTION(
/* description */ ('STEP AP214'),
/* implementation_level */ '2;1');

FILE_NAME(
/* name */ 'DV1520',
/* time_stamp */ '2026-07-11T11:40:44+02:00',
/* author */ ('License CC BY-ND 4.0'),
/* organization */ ('CADENAS'),
/* preprocessor_version */ 'ST-DEVELOPER v20',
/* originating_system */ 'PARTsolutions',
/* authorisation */ '  ');

FILE_SCHEMA (('AUTOMOTIVE_DESIGN {1 0 10303 214 3 1 1}'));
ENDSEC;

DATA;
#10=PROPERTY_DEFINITION_REPRESENTATION(#14,#12);
#11=PROPERTY_DEFINITION_REPRESENTATION(#15,#13);
#12=REPRESENTATION('',(#16),#1533);
#13=REPRESENTATION('',(#17),#1533);
#14=PROPERTY_DEFINITION('pmi validation property','',#1538);
#15=PROPERTY_DEFINITION('pmi validation property','',#1538);
#16=VALUE_REPRESENTATION_ITEM('number of annotations',COUNT_MEASURE(0.));
#17=VALUE_REPRESENTATION_ITEM('number of views',COUNT_MEASURE(0.));
#18=SHAPE_REPRESENTATION_RELATIONSHIP('','',#1027,#19);
#19=ADVANCED_BREP_SHAPE_REPRESENTATION('',(#1025),#1533);
#20=CYLINDRICAL_SURFACE('',#1048,34.9);
#21=CYLINDRICAL_SURFACE('',#1052,35.);
#22=CYLINDRICAL_SURFACE('',#1055,33.);
#23=CYLINDRICAL_SURFACE('',#1058,0.500000000000005);
#24=CYLINDRICAL_SURFACE('',#1061,0.5);
#25=CYLINDRICAL_SURFACE('',#1064,10.);
#26=CYLINDRICAL_SURFACE('',#1068,6.5);
#27=CYLINDRICAL_SURFACE('',#1071,6.5);
#28=CYLINDRICAL_SURFACE('',#1074,10.);
#29=CYLINDRICAL_SURFACE('',#1077,6.5);
#30=CYLINDRICAL_SURFACE('',#1091,5.5);
#31=CYLINDRICAL_SURFACE('',#1095,5.5);
#32=CYLINDRICAL_SURFACE('',#1099,5.5);
#33=CYLINDRICAL_SURFACE('',#1104,9.);
#34=CYLINDRICAL_SURFACE('',#1107,9.);
#35=CYLINDRICAL_SURFACE('',#1110,2.);
#36=CYLINDRICAL_SURFACE('',#1115,2.);
#37=CYLINDRICAL_SURFACE('',#1120,2.);
#38=CONICAL_SURFACE('',#1044,34.7689645839414,0.0176845995072525);
#39=CONICAL_SURFACE('',#1112,2.,0.785398163397444);
#40=CONICAL_SURFACE('',#1117,2.,0.785398163397446);
#41=CONICAL_SURFACE('',#1122,2.,0.785398163397445);
#42=DEGENERATE_TOROIDAL_SURFACE('',#1038,3229.68999999895,3261.79999999895,
 .F.);
#43=TOROIDAL_SURFACE('',#1036,16.3789486464819,9.00000000000003);
#44=TOROIDAL_SURFACE('',#1040,39.9857182777964,8.00000000000001);
#45=TOROIDAL_SURFACE('',#1042,30.2690000000001,4.4999999999999);
#46=TOROIDAL_SURFACE('',#1054,34.,1.);
#47=SPHERICAL_SURFACE('',#1034,64.9999999999996);
#48=LINE('',#1354,#76);
#49=LINE('',#1358,#77);
#50=LINE('',#1362,#78);
#51=LINE('',#1395,#79);
#52=LINE('',#1399,#80);
#53=LINE('',#1401,#81);
#54=LINE('',#1403,#82);
#55=LINE('',#1407,#83);
#56=LINE('',#1409,#84);
#57=LINE('',#1411,#85);
#58=LINE('',#1415,#86);
#59=LINE('',#1417,#87);
#60=LINE('',#1420,#88);
#61=LINE('',#1422,#89);
#62=LINE('',#1424,#90);
#63=LINE('',#1428,#91);
#64=LINE('',#1432,#92);
#65=LINE('',#1434,#93);
#66=LINE('',#1436,#94);
#67=LINE('',#1456,#95);
#68=LINE('',#1462,#96);
#69=LINE('',#1467,#97);
#70=LINE('',#1495,#98);
#71=LINE('',#1497,#99);
#72=LINE('',#1499,#100);
#73=LINE('',#1503,#101);
#74=LINE('',#1505,#102);
#75=LINE('',#1507,#103);
#76=VECTOR('',#1133,1000.);
#77=VECTOR('',#1136,1000.);
#78=VECTOR('',#1139,1000.);
#79=VECTOR('',#1184,1000.);
#80=VECTOR('',#1187,1000.);
#81=VECTOR('',#1190,1000.);
#82=VECTOR('',#1191,1000.);
#83=VECTOR('',#1196,1000.);
#84=VECTOR('',#1199,1000.);
#85=VECTOR('',#1200,1000.);
#86=VECTOR('',#1205,1000.);
#87=VECTOR('',#1208,1000.);
#88=VECTOR('',#1209,1000.);
#89=VECTOR('',#1210,1000.);
#90=VECTOR('',#1211,1000.);
#91=VECTOR('',#1216,1000.);
#92=VECTOR('',#1221,1000.);
#93=VECTOR('',#1222,1000.);
#94=VECTOR('',#1223,1000.);
#95=VECTOR('',#1250,1000.);
#96=VECTOR('',#1259,1000.);
#97=VECTOR('',#1262,1000.);
#98=VECTOR('',#1299,1000.);
#99=VECTOR('',#1300,1000.);
#100=VECTOR('',#1301,1000.);
#101=VECTOR('',#1306,1000.);
#102=VECTOR('',#1309,1000.);
#103=VECTOR('',#1310,1000.);
#104=ORIENTED_EDGE('',*,*,#252,.T.);
#105=ORIENTED_EDGE('',*,*,#253,.F.);
#106=ORIENTED_EDGE('',*,*,#254,.F.);
#107=ORIENTED_EDGE('',*,*,#255,.T.);
#108=ORIENTED_EDGE('',*,*,#256,.F.);
#109=ORIENTED_EDGE('',*,*,#257,.T.);
#110=ORIENTED_EDGE('',*,*,#258,.F.);
#111=ORIENTED_EDGE('',*,*,#259,.F.);
#112=ORIENTED_EDGE('',*,*,#259,.T.);
#113=ORIENTED_EDGE('',*,*,#260,.F.);
#114=ORIENTED_EDGE('',*,*,#260,.T.);
#115=ORIENTED_EDGE('',*,*,#261,.F.);
#116=ORIENTED_EDGE('',*,*,#262,.F.);
#117=ORIENTED_EDGE('',*,*,#261,.T.);
#118=ORIENTED_EDGE('',*,*,#262,.T.);
#119=ORIENTED_EDGE('',*,*,#263,.F.);
#120=ORIENTED_EDGE('',*,*,#264,.F.);
#121=ORIENTED_EDGE('',*,*,#263,.T.);
#122=ORIENTED_EDGE('',*,*,#265,.F.);
#123=ORIENTED_EDGE('',*,*,#264,.T.);
#124=ORIENTED_EDGE('',*,*,#266,.F.);
#125=ORIENTED_EDGE('',*,*,#265,.T.);
#126=ORIENTED_EDGE('',*,*,#267,.F.);
#127=ORIENTED_EDGE('',*,*,#266,.T.);
#128=ORIENTED_EDGE('',*,*,#268,.F.);
#129=ORIENTED_EDGE('',*,*,#267,.T.);
#130=ORIENTED_EDGE('',*,*,#268,.T.);
#131=ORIENTED_EDGE('',*,*,#252,.F.);
#132=ORIENTED_EDGE('',*,*,#253,.T.);
#133=ORIENTED_EDGE('',*,*,#269,.F.);
#134=ORIENTED_EDGE('',*,*,#270,.T.);
#135=ORIENTED_EDGE('',*,*,#271,.T.);
#136=ORIENTED_EDGE('',*,*,#254,.T.);
#137=ORIENTED_EDGE('',*,*,#271,.F.);
#138=ORIENTED_EDGE('',*,*,#272,.T.);
#139=ORIENTED_EDGE('',*,*,#273,.T.);
#140=ORIENTED_EDGE('',*,*,#273,.F.);
#141=ORIENTED_EDGE('',*,*,#274,.F.);
#142=ORIENTED_EDGE('',*,*,#275,.T.);
#143=ORIENTED_EDGE('',*,*,#255,.F.);
#144=ORIENTED_EDGE('',*,*,#256,.T.);
#145=ORIENTED_EDGE('',*,*,#275,.F.);
#146=ORIENTED_EDGE('',*,*,#276,.T.);
#147=ORIENTED_EDGE('',*,*,#277,.T.);
#148=ORIENTED_EDGE('',*,*,#277,.F.);
#149=ORIENTED_EDGE('',*,*,#278,.F.);
#150=ORIENTED_EDGE('',*,*,#279,.T.);
#151=ORIENTED_EDGE('',*,*,#257,.F.);
#152=ORIENTED_EDGE('',*,*,#280,.F.);
#153=ORIENTED_EDGE('',*,*,#281,.F.);
#154=ORIENTED_EDGE('',*,*,#282,.T.);
#155=ORIENTED_EDGE('',*,*,#283,.F.);
#156=ORIENTED_EDGE('',*,*,#282,.F.);
#157=ORIENTED_EDGE('',*,*,#284,.F.);
#158=ORIENTED_EDGE('',*,*,#285,.T.);
#159=ORIENTED_EDGE('',*,*,#286,.F.);
#160=ORIENTED_EDGE('',*,*,#285,.F.);
#161=ORIENTED_EDGE('',*,*,#287,.F.);
#162=ORIENTED_EDGE('',*,*,#288,.T.);
#163=ORIENTED_EDGE('',*,*,#289,.F.);
#164=ORIENTED_EDGE('',*,*,#290,.F.);
#165=ORIENTED_EDGE('',*,*,#291,.F.);
#166=ORIENTED_EDGE('',*,*,#292,.F.);
#167=ORIENTED_EDGE('',*,*,#293,.F.);
#168=ORIENTED_EDGE('',*,*,#288,.F.);
#169=ORIENTED_EDGE('',*,*,#294,.F.);
#170=ORIENTED_EDGE('',*,*,#280,.T.);
#171=ORIENTED_EDGE('',*,*,#295,.F.);
#172=ORIENTED_EDGE('',*,*,#296,.F.);
#173=ORIENTED_EDGE('',*,*,#297,.F.);
#174=ORIENTED_EDGE('',*,*,#258,.T.);
#175=ORIENTED_EDGE('',*,*,#279,.F.);
#176=ORIENTED_EDGE('',*,*,#298,.T.);
#177=ORIENTED_EDGE('',*,*,#269,.T.);
#178=ORIENTED_EDGE('',*,*,#296,.T.);
#179=ORIENTED_EDGE('',*,*,#281,.T.);
#180=ORIENTED_EDGE('',*,*,#294,.T.);
#181=ORIENTED_EDGE('',*,*,#287,.T.);
#182=ORIENTED_EDGE('',*,*,#284,.T.);
#183=ORIENTED_EDGE('',*,*,#292,.T.);
#184=ORIENTED_EDGE('',*,*,#290,.T.);
#185=ORIENTED_EDGE('',*,*,#270,.F.);
#186=ORIENTED_EDGE('',*,*,#298,.F.);
#187=ORIENTED_EDGE('',*,*,#278,.T.);
#188=ORIENTED_EDGE('',*,*,#276,.F.);
#189=ORIENTED_EDGE('',*,*,#274,.T.);
#190=ORIENTED_EDGE('',*,*,#272,.F.);
#191=ORIENTED_EDGE('',*,*,#299,.T.);
#192=ORIENTED_EDGE('',*,*,#297,.T.);
#193=ORIENTED_EDGE('',*,*,#300,.T.);
#194=ORIENTED_EDGE('',*,*,#301,.T.);
#195=ORIENTED_EDGE('',*,*,#302,.T.);
#196=ORIENTED_EDGE('',*,*,#303,.T.);
#197=ORIENTED_EDGE('',*,*,#295,.T.);
#198=ORIENTED_EDGE('',*,*,#283,.T.);
#199=ORIENTED_EDGE('',*,*,#286,.T.);
#200=ORIENTED_EDGE('',*,*,#289,.T.);
#201=ORIENTED_EDGE('',*,*,#304,.F.);
#202=ORIENTED_EDGE('',*,*,#293,.T.);
#203=ORIENTED_EDGE('',*,*,#305,.T.);
#204=ORIENTED_EDGE('',*,*,#291,.T.);
#205=ORIENTED_EDGE('',*,*,#306,.T.);
#206=ORIENTED_EDGE('',*,*,#304,.T.);
#207=ORIENTED_EDGE('',*,*,#307,.F.);
#208=ORIENTED_EDGE('',*,*,#306,.F.);
#209=ORIENTED_EDGE('',*,*,#308,.T.);
#210=ORIENTED_EDGE('',*,*,#299,.F.);
#211=ORIENTED_EDGE('',*,*,#309,.F.);
#212=ORIENTED_EDGE('',*,*,#308,.F.);
#213=ORIENTED_EDGE('',*,*,#310,.T.);
#214=ORIENTED_EDGE('',*,*,#305,.F.);
#215=ORIENTED_EDGE('',*,*,#311,.F.);
#216=ORIENTED_EDGE('',*,*,#310,.F.);
#217=ORIENTED_EDGE('',*,*,#300,.F.);
#218=ORIENTED_EDGE('',*,*,#312,.F.);
#219=ORIENTED_EDGE('',*,*,#313,.T.);
#220=ORIENTED_EDGE('',*,*,#314,.T.);
#221=ORIENTED_EDGE('',*,*,#301,.F.);
#222=ORIENTED_EDGE('',*,*,#314,.F.);
#223=ORIENTED_EDGE('',*,*,#315,.T.);
#224=ORIENTED_EDGE('',*,*,#316,.T.);
#225=ORIENTED_EDGE('',*,*,#302,.F.);
#226=ORIENTED_EDGE('',*,*,#316,.F.);
#227=ORIENTED_EDGE('',*,*,#317,.T.);
#228=ORIENTED_EDGE('',*,*,#318,.T.);
#229=ORIENTED_EDGE('',*,*,#303,.F.);
#230=ORIENTED_EDGE('',*,*,#318,.F.);
#231=ORIENTED_EDGE('',*,*,#319,.T.);
#232=ORIENTED_EDGE('',*,*,#312,.T.);
#233=ORIENTED_EDGE('',*,*,#313,.F.);
#234=ORIENTED_EDGE('',*,*,#319,.F.);
#235=ORIENTED_EDGE('',*,*,#317,.F.);
#236=ORIENTED_EDGE('',*,*,#315,.F.);
#237=ORIENTED_EDGE('',*,*,#320,.F.);
#238=ORIENTED_EDGE('',*,*,#307,.T.);
#239=ORIENTED_EDGE('',*,*,#321,.F.);
#240=ORIENTED_EDGE('',*,*,#320,.T.);
#241=ORIENTED_EDGE('',*,*,#321,.T.);
#242=ORIENTED_EDGE('',*,*,#322,.F.);
#243=ORIENTED_EDGE('',*,*,#311,.T.);
#244=ORIENTED_EDGE('',*,*,#323,.F.);
#245=ORIENTED_EDGE('',*,*,#322,.T.);
#246=ORIENTED_EDGE('',*,*,#323,.T.);
#247=ORIENTED_EDGE('',*,*,#324,.F.);
#248=ORIENTED_EDGE('',*,*,#309,.T.);
#249=ORIENTED_EDGE('',*,*,#325,.F.);
#250=ORIENTED_EDGE('',*,*,#324,.T.);
#251=ORIENTED_EDGE('',*,*,#325,.T.);
#252=EDGE_CURVE('',#326,#326,#386,.T.);
#253=EDGE_CURVE('',#327,#328,#387,.F.);
#254=EDGE_CURVE('',#329,#327,#48,.T.);
#255=EDGE_CURVE('',#329,#330,#388,.F.);
#256=EDGE_CURVE('',#331,#330,#49,.T.);
#257=EDGE_CURVE('',#331,#332,#389,.F.);
#258=EDGE_CURVE('',#328,#332,#50,.T.);
#259=EDGE_CURVE('',#333,#333,#390,.T.);
#260=EDGE_CURVE('',#334,#334,#391,.T.);
#261=EDGE_CURVE('',#335,#335,#392,.T.);
#262=EDGE_CURVE('',#336,#336,#393,.T.);
#263=EDGE_CURVE('',#337,#337,#394,.T.);
#264=EDGE_CURVE('',#338,#338,#395,.T.);
#265=EDGE_CURVE('',#339,#339,#396,.T.);
#266=EDGE_CURVE('',#340,#340,#397,.T.);
#267=EDGE_CURVE('',#341,#341,#398,.T.);
#268=EDGE_CURVE('',#342,#342,#399,.T.);
#269=EDGE_CURVE('',#343,#328,#51,.T.);
#270=EDGE_CURVE('',#343,#344,#400,.T.);
#271=EDGE_CURVE('',#344,#327,#52,.T.);
#272=EDGE_CURVE('',#344,#345,#53,.T.);
#273=EDGE_CURVE('',#345,#329,#54,.T.);
#274=EDGE_CURVE('',#346,#345,#401,.T.);
#275=EDGE_CURVE('',#346,#330,#55,.T.);
#276=EDGE_CURVE('',#346,#347,#56,.T.);
#277=EDGE_CURVE('',#347,#331,#57,.T.);
#278=EDGE_CURVE('',#348,#347,#402,.T.);
#279=EDGE_CURVE('',#348,#332,#58,.T.);
#280=EDGE_CURVE('',#349,#350,#59,.T.);
#281=EDGE_CURVE('',#351,#349,#60,.T.);
#282=EDGE_CURVE('',#351,#352,#61,.T.);
#283=EDGE_CURVE('',#350,#352,#62,.T.);
#284=EDGE_CURVE('',#353,#351,#403,.T.);
#285=EDGE_CURVE('',#353,#354,#63,.T.);
#286=EDGE_CURVE('',#352,#354,#404,.F.);
#287=EDGE_CURVE('',#355,#353,#64,.T.);
#288=EDGE_CURVE('',#355,#356,#65,.T.);
#289=EDGE_CURVE('',#354,#356,#66,.T.);
#290=EDGE_CURVE('',#357,#357,#405,.T.);
#291=EDGE_CURVE('',#358,#358,#406,.F.);
#292=EDGE_CURVE('',#359,#359,#407,.T.);
#293=EDGE_CURVE('',#360,#360,#408,.F.);
#294=EDGE_CURVE('',#349,#355,#409,.T.);
#295=EDGE_CURVE('',#356,#350,#410,.F.);
#296=EDGE_CURVE('',#361,#361,#411,.T.);
#297=EDGE_CURVE('',#362,#362,#412,.F.);
#298=EDGE_CURVE('',#348,#343,#67,.T.);
#299=EDGE_CURVE('',#363,#363,#413,.T.);
#300=EDGE_CURVE('',#364,#365,#68,.T.);
#301=EDGE_CURVE('',#365,#366,#414,.T.);
#302=EDGE_CURVE('',#366,#367,#69,.T.);
#303=EDGE_CURVE('',#367,#364,#415,.T.);
#304=EDGE_CURVE('',#368,#368,#416,.F.);
#305=EDGE_CURVE('',#369,#369,#417,.T.);
#306=EDGE_CURVE('',#370,#370,#418,.T.);
#307=EDGE_CURVE('',#371,#371,#419,.F.);
#308=EDGE_CURVE('',#372,#372,#420,.T.);
#309=EDGE_CURVE('',#373,#373,#421,.F.);
#310=EDGE_CURVE('',#374,#374,#422,.T.);
#311=EDGE_CURVE('',#375,#375,#423,.F.);
#312=EDGE_CURVE('',#376,#364,#70,.T.);
#313=EDGE_CURVE('',#376,#377,#71,.T.);
#314=EDGE_CURVE('',#377,#365,#72,.T.);
#315=EDGE_CURVE('',#377,#378,#424,.T.);
#316=EDGE_CURVE('',#378,#366,#73,.T.);
#317=EDGE_CURVE('',#378,#379,#74,.T.);
#318=EDGE_CURVE('',#379,#367,#75,.T.);
#319=EDGE_CURVE('',#379,#376,#425,.T.);
#320=EDGE_CURVE('',#380,#380,#426,.T.);
#321=EDGE_CURVE('',#381,#381,#427,.T.);
#322=EDGE_CURVE('',#382,#382,#428,.T.);
#323=EDGE_CURVE('',#383,#383,#429,.T.);
#324=EDGE_CURVE('',#384,#384,#430,.T.);
#325=EDGE_CURVE('',#385,#385,#431,.T.);
#326=VERTEX_POINT('',#1350);
#327=VERTEX_POINT('',#1352);
#328=VERTEX_POINT('',#1353);
#329=VERTEX_POINT('',#1355);
#330=VERTEX_POINT('',#1357);
#331=VERTEX_POINT('',#1359);
#332=VERTEX_POINT('',#1361);
#333=VERTEX_POINT('',#1365);
#334=VERTEX_POINT('',#1368);
#335=VERTEX_POINT('',#1371);
#336=VERTEX_POINT('',#1374);
#337=VERTEX_POINT('',#1377);
#338=VERTEX_POINT('',#1380);
#339=VERTEX_POINT('',#1383);
#340=VERTEX_POINT('',#1386);
#341=VERTEX_POINT('',#1389);
#342=VERTEX_POINT('',#1392);
#343=VERTEX_POINT('',#1396);
#344=VERTEX_POINT('',#1398);
#345=VERTEX_POINT('',#1402);
#346=VERTEX_POINT('',#1406);
#347=VERTEX_POINT('',#1410);
#348=VERTEX_POINT('',#1414);
#349=VERTEX_POINT('',#1418);
#350=VERTEX_POINT('',#1419);
#351=VERTEX_POINT('',#1421);
#352=VERTEX_POINT('',#1423);
#353=VERTEX_POINT('',#1427);
#354=VERTEX_POINT('',#1429);
#355=VERTEX_POINT('',#1433);
#356=VERTEX_POINT('',#1435);
#357=VERTEX_POINT('',#1439);
#358=VERTEX_POINT('',#1441);
#359=VERTEX_POINT('',#1444);
#360=VERTEX_POINT('',#1446);
#361=VERTEX_POINT('',#1452);
#362=VERTEX_POINT('',#1454);
#363=VERTEX_POINT('',#1460);
#364=VERTEX_POINT('',#1463);
#365=VERTEX_POINT('',#1464);
#366=VERTEX_POINT('',#1466);
#367=VERTEX_POINT('',#1468);
#368=VERTEX_POINT('',#1472);
#369=VERTEX_POINT('',#1475);
#370=VERTEX_POINT('',#1478);
#371=VERTEX_POINT('',#1481);
#372=VERTEX_POINT('',#1484);
#373=VERTEX_POINT('',#1487);
#374=VERTEX_POINT('',#1490);
#375=VERTEX_POINT('',#1493);
#376=VERTEX_POINT('',#1496);
#377=VERTEX_POINT('',#1498);
#378=VERTEX_POINT('',#1502);
#379=VERTEX_POINT('',#1506);
#380=VERTEX_POINT('',#1513);
#381=VERTEX_POINT('',#1516);
#382=VERTEX_POINT('',#1520);
#383=VERTEX_POINT('',#1523);
#384=VERTEX_POINT('',#1527);
#385=VERTEX_POINT('',#1530);
#386=CIRCLE('',#1030,34.);
#387=CIRCLE('',#1031,33.);
#388=CIRCLE('',#1032,0.500000000000005);
#389=CIRCLE('',#1033,0.5);
#390=CIRCLE('',#1035,19.0112796789522);
#391=CIRCLE('',#1037,25.360324988055);
#392=CIRCLE('',#1039,31.9860223495372);
#393=CIRCLE('',#1041,33.7670185800067);
#394=CIRCLE('',#1043,34.7689645839414);
#395=CIRCLE('',#1045,35.);
#396=CIRCLE('',#1047,34.9);
#397=CIRCLE('',#1049,34.9);
#398=CIRCLE('',#1051,35.);
#399=CIRCLE('',#1053,35.);
#400=CIRCLE('',#1056,33.);
#401=CIRCLE('',#1059,0.500000000000005);
#402=CIRCLE('',#1062,0.5);
#403=CIRCLE('',#1065,10.);
#404=CIRCLE('',#1066,10.);
#405=CIRCLE('',#1069,6.5);
#406=CIRCLE('',#1070,6.5);
#407=CIRCLE('',#1072,6.5);
#408=CIRCLE('',#1073,6.5);
#409=CIRCLE('',#1075,10.);
#410=CIRCLE('',#1076,10.);
#411=CIRCLE('',#1078,6.5);
#412=CIRCLE('',#1079,6.5);
#413=CIRCLE('',#1083,5.5);
#414=CIRCLE('',#1085,9.);
#415=CIRCLE('',#1086,9.);
#416=CIRCLE('',#1088,5.5);
#417=CIRCLE('',#1090,5.5);
#418=CIRCLE('',#1092,5.5);
#419=CIRCLE('',#1094,2.);
#420=CIRCLE('',#1096,5.5);
#421=CIRCLE('',#1098,2.);
#422=CIRCLE('',#1100,5.5);
#423=CIRCLE('',#1102,2.);
#424=CIRCLE('',#1105,9.);
#425=CIRCLE('',#1108,9.);
#426=CIRCLE('',#1111,2.);
#427=CIRCLE('',#1113,1.5705);
#428=CIRCLE('',#1116,2.);
#429=CIRCLE('',#1118,1.5705);
#430=CIRCLE('',#1121,2.);
#431=CIRCLE('',#1123,1.5705);
#432=EDGE_LOOP('',(#104));
#433=EDGE_LOOP('',(#105,#106,#107,#108,#109,#110));
#434=EDGE_LOOP('',(#111));
#435=EDGE_LOOP('',(#112));
#436=EDGE_LOOP('',(#113));
#437=EDGE_LOOP('',(#114));
#438=EDGE_LOOP('',(#115));
#439=EDGE_LOOP('',(#116));
#440=EDGE_LOOP('',(#117));
#441=EDGE_LOOP('',(#118));
#442=EDGE_LOOP('',(#119));
#443=EDGE_LOOP('',(#120));
#444=EDGE_LOOP('',(#121));
#445=EDGE_LOOP('',(#122));
#446=EDGE_LOOP('',(#123));
#447=EDGE_LOOP('',(#124));
#448=EDGE_LOOP('',(#125));
#449=EDGE_LOOP('',(#126));
#450=EDGE_LOOP('',(#127));
#451=EDGE_LOOP('',(#128));
#452=EDGE_LOOP('',(#129));
#453=EDGE_LOOP('',(#130));
#454=EDGE_LOOP('',(#131));
#455=EDGE_LOOP('',(#132,#133,#134,#135));
#456=EDGE_LOOP('',(#136,#137,#138,#139));
#457=EDGE_LOOP('',(#140,#141,#142,#143));
#458=EDGE_LOOP('',(#144,#145,#146,#147));
#459=EDGE_LOOP('',(#148,#149,#150,#151));
#460=EDGE_LOOP('',(#152,#153,#154,#155));
#461=EDGE_LOOP('',(#156,#157,#158,#159));
#462=EDGE_LOOP('',(#160,#161,#162,#163));
#463=EDGE_LOOP('',(#164));
#464=EDGE_LOOP('',(#165));
#465=EDGE_LOOP('',(#166));
#466=EDGE_LOOP('',(#167));
#467=EDGE_LOOP('',(#168,#169,#170,#171));
#468=EDGE_LOOP('',(#172));
#469=EDGE_LOOP('',(#173));
#470=EDGE_LOOP('',(#174,#175,#176,#177));
#471=EDGE_LOOP('',(#178));
#472=EDGE_LOOP('',(#179,#180,#181,#182));
#473=EDGE_LOOP('',(#183));
#474=EDGE_LOOP('',(#184));
#475=EDGE_LOOP('',(#185,#186,#187,#188,#189,#190));
#476=EDGE_LOOP('',(#191));
#477=EDGE_LOOP('',(#192));
#478=EDGE_LOOP('',(#193,#194,#195,#196));
#479=EDGE_LOOP('',(#197,#198,#199,#200));
#480=EDGE_LOOP('',(#201));
#481=EDGE_LOOP('',(#202));
#482=EDGE_LOOP('',(#203));
#483=EDGE_LOOP('',(#204));
#484=EDGE_LOOP('',(#205));
#485=EDGE_LOOP('',(#206));
#486=EDGE_LOOP('',(#207));
#487=EDGE_LOOP('',(#208));
#488=EDGE_LOOP('',(#209));
#489=EDGE_LOOP('',(#210));
#490=EDGE_LOOP('',(#211));
#491=EDGE_LOOP('',(#212));
#492=EDGE_LOOP('',(#213));
#493=EDGE_LOOP('',(#214));
#494=EDGE_LOOP('',(#215));
#495=EDGE_LOOP('',(#216));
#496=EDGE_LOOP('',(#217,#218,#219,#220));
#497=EDGE_LOOP('',(#221,#222,#223,#224));
#498=EDGE_LOOP('',(#225,#226,#227,#228));
#499=EDGE_LOOP('',(#229,#230,#231,#232));
#500=EDGE_LOOP('',(#233,#234,#235,#236));
#501=EDGE_LOOP('',(#237));
#502=EDGE_LOOP('',(#238));
#503=EDGE_LOOP('',(#239));
#504=EDGE_LOOP('',(#240));
#505=EDGE_LOOP('',(#241));
#506=EDGE_LOOP('',(#242));
#507=EDGE_LOOP('',(#243));
#508=EDGE_LOOP('',(#244));
#509=EDGE_LOOP('',(#245));
#510=EDGE_LOOP('',(#246));
#511=EDGE_LOOP('',(#247));
#512=EDGE_LOOP('',(#248));
#513=EDGE_LOOP('',(#249));
#514=EDGE_LOOP('',(#250));
#515=EDGE_LOOP('',(#251));
#516=FACE_BOUND('',#432,.T.);
#517=FACE_BOUND('',#433,.T.);
#518=FACE_BOUND('',#434,.T.);
#519=FACE_BOUND('',#435,.T.);
#520=FACE_BOUND('',#436,.T.);
#521=FACE_BOUND('',#437,.T.);
#522=FACE_BOUND('',#438,.T.);
#523=FACE_BOUND('',#439,.T.);
#524=FACE_BOUND('',#440,.T.);
#525=FACE_BOUND('',#441,.T.);
#526=FACE_BOUND('',#442,.T.);
#527=FACE_BOUND('',#443,.T.);
#528=FACE_BOUND('',#444,.T.);
#529=FACE_BOUND('',#445,.T.);
#530=FACE_BOUND('',#446,.T.);
#531=FACE_BOUND('',#447,.T.);
#532=FACE_BOUND('',#448,.T.);
#533=FACE_BOUND('',#449,.T.);
#534=FACE_BOUND('',#450,.T.);
#535=FACE_BOUND('',#451,.T.);
#536=FACE_BOUND('',#452,.T.);
#537=FACE_BOUND('',#453,.T.);
#538=FACE_BOUND('',#454,.T.);
#539=FACE_BOUND('',#455,.T.);
#540=FACE_BOUND('',#456,.T.);
#541=FACE_BOUND('',#457,.T.);
#542=FACE_BOUND('',#458,.T.);
#543=FACE_BOUND('',#459,.T.);
#544=FACE_BOUND('',#460,.T.);
#545=FACE_BOUND('',#461,.T.);
#546=FACE_BOUND('',#462,.T.);
#547=FACE_BOUND('',#463,.T.);
#548=FACE_BOUND('',#464,.T.);
#549=FACE_BOUND('',#465,.T.);
#550=FACE_BOUND('',#466,.T.);
#551=FACE_BOUND('',#467,.T.);
#552=FACE_BOUND('',#468,.T.);
#553=FACE_BOUND('',#469,.T.);
#554=FACE_BOUND('',#470,.T.);
#555=FACE_BOUND('',#471,.T.);
#556=FACE_BOUND('',#472,.T.);
#557=FACE_BOUND('',#473,.T.);
#558=FACE_BOUND('',#474,.T.);
#559=FACE_BOUND('',#475,.T.);
#560=FACE_BOUND('',#476,.T.);
#561=FACE_BOUND('',#477,.T.);
#562=FACE_BOUND('',#478,.T.);
#563=FACE_BOUND('',#479,.T.);
#564=FACE_BOUND('',#480,.T.);
#565=FACE_BOUND('',#481,.T.);
#566=FACE_BOUND('',#482,.T.);
#567=FACE_BOUND('',#483,.T.);
#568=FACE_BOUND('',#484,.T.);
#569=FACE_BOUND('',#485,.T.);
#570=FACE_BOUND('',#486,.T.);
#571=FACE_BOUND('',#487,.T.);
#572=FACE_BOUND('',#488,.T.);
#573=FACE_BOUND('',#489,.T.);
#574=FACE_BOUND('',#490,.T.);
#575=FACE_BOUND('',#491,.T.);
#576=FACE_BOUND('',#492,.T.);
#577=FACE_BOUND('',#493,.T.);
#578=FACE_BOUND('',#494,.T.);
#579=FACE_BOUND('',#495,.T.);
#580=FACE_BOUND('',#496,.T.);
#581=FACE_BOUND('',#497,.T.);
#582=FACE_BOUND('',#498,.T.);
#583=FACE_BOUND('',#499,.T.);
#584=FACE_BOUND('',#500,.T.);
#585=FACE_BOUND('',#501,.T.);
#586=FACE_BOUND('',#502,.T.);
#587=FACE_BOUND('',#503,.T.);
#588=FACE_BOUND('',#504,.T.);
#589=FACE_BOUND('',#505,.T.);
#590=FACE_BOUND('',#506,.T.);
#591=FACE_BOUND('',#507,.T.);
#592=FACE_BOUND('',#508,.T.);
#593=FACE_BOUND('',#509,.T.);
#594=FACE_BOUND('',#510,.T.);
#595=FACE_BOUND('',#511,.T.);
#596=FACE_BOUND('',#512,.T.);
#597=FACE_BOUND('',#513,.T.);
#598=FACE_BOUND('',#514,.T.);
#599=FACE_BOUND('',#515,.T.);
#600=PLANE('',#1029);
#601=PLANE('',#1046);
#602=PLANE('',#1050);
#603=PLANE('',#1057);
#604=PLANE('',#1060);
#605=PLANE('',#1063);
#606=PLANE('',#1067);
#607=PLANE('',#1080);
#608=PLANE('',#1081);
#609=PLANE('',#1082);
#610=PLANE('',#1084);
#611=PLANE('',#1087);
#612=PLANE('',#1089);
#613=PLANE('',#1093);
#614=PLANE('',#1097);
#615=PLANE('',#1101);
#616=PLANE('',#1103);
#617=PLANE('',#1106);
#618=PLANE('',#1109);
#619=PLANE('',#1114);
#620=PLANE('',#1119);
#621=PLANE('',#1124);
#622=STYLED_ITEM('',(#672),#974);
#623=STYLED_ITEM('',(#673),#975);
#624=STYLED_ITEM('',(#674),#976);
#625=STYLED_ITEM('',(#675),#977);
#626=STYLED_ITEM('',(#676),#978);
#627=STYLED_ITEM('',(#677),#979);
#628=STYLED_ITEM('',(#678),#980);
#629=STYLED_ITEM('',(#679),#981);
#630=STYLED_ITEM('',(#680),#982);
#631=STYLED_ITEM('',(#681),#983);
#632=STYLED_ITEM('',(#682),#984);
#633=STYLED_ITEM('',(#683),#985);
#634=STYLED_ITEM('',(#684),#986);
#635=STYLED_ITEM('',(#685),#987);
#636=STYLED_ITEM('',(#686),#988);
#637=STYLED_ITEM('',(#687),#989);
#638=STYLED_ITEM('',(#688),#990);
#639=STYLED_ITEM('',(#689),#991);
#640=STYLED_ITEM('',(#690),#992);
#641=STYLED_ITEM('',(#691),#993);
#642=STYLED_ITEM('',(#692),#994);
#643=STYLED_ITEM('',(#693),#995);
#644=STYLED_ITEM('',(#694),#996);
#645=STYLED_ITEM('',(#695),#997);
#646=STYLED_ITEM('',(#696),#998);
#647=STYLED_ITEM('',(#697),#999);
#648=STYLED_ITEM('',(#698),#1000);
#649=STYLED_ITEM('',(#699),#1001);
#650=STYLED_ITEM('',(#700),#1002);
#651=STYLED_ITEM('',(#701),#1003);
#652=STYLED_ITEM('',(#702),#1004);
#653=STYLED_ITEM('',(#703),#1005);
#654=STYLED_ITEM('',(#704),#1006);
#655=STYLED_ITEM('',(#705),#1007);
#656=STYLED_ITEM('',(#706),#1008);
#657=STYLED_ITEM('',(#707),#1009);
#658=STYLED_ITEM('',(#708),#1010);
#659=STYLED_ITEM('',(#709),#1011);
#660=STYLED_ITEM('',(#710),#1012);
#661=STYLED_ITEM('',(#711),#1013);
#662=STYLED_ITEM('',(#712),#1014);
#663=STYLED_ITEM('',(#713),#1015);
#664=STYLED_ITEM('',(#714),#1016);
#665=STYLED_ITEM('',(#715),#1017);
#666=STYLED_ITEM('',(#716),#1018);
#667=STYLED_ITEM('',(#717),#1019);
#668=STYLED_ITEM('',(#718),#1020);
#669=STYLED_ITEM('',(#719),#1021);
#670=STYLED_ITEM('',(#720),#1022);
#671=STYLED_ITEM('',(#721),#1023);
#672=PRESENTATION_STYLE_ASSIGNMENT((#722));
#673=PRESENTATION_STYLE_ASSIGNMENT((#723));
#674=PRESENTATION_STYLE_ASSIGNMENT((#724));
#675=PRESENTATION_STYLE_ASSIGNMENT((#725));
#676=PRESENTATION_STYLE_ASSIGNMENT((#726));
#677=PRESENTATION_STYLE_ASSIGNMENT((#727));
#678=PRESENTATION_STYLE_ASSIGNMENT((#728));
#679=PRESENTATION_STYLE_ASSIGNMENT((#729));
#680=PRESENTATION_STYLE_ASSIGNMENT((#730));
#681=PRESENTATION_STYLE_ASSIGNMENT((#731));
#682=PRESENTATION_STYLE_ASSIGNMENT((#732));
#683=PRESENTATION_STYLE_ASSIGNMENT((#733));
#684=PRESENTATION_STYLE_ASSIGNMENT((#734));
#685=PRESENTATION_STYLE_ASSIGNMENT((#735));
#686=PRESENTATION_STYLE_ASSIGNMENT((#736));
#687=PRESENTATION_STYLE_ASSIGNMENT((#737));
#688=PRESENTATION_STYLE_ASSIGNMENT((#738));
#689=PRESENTATION_STYLE_ASSIGNMENT((#739));
#690=PRESENTATION_STYLE_ASSIGNMENT((#740));
#691=PRESENTATION_STYLE_ASSIGNMENT((#741));
#692=PRESENTATION_STYLE_ASSIGNMENT((#742));
#693=PRESENTATION_STYLE_ASSIGNMENT((#743));
#694=PRESENTATION_STYLE_ASSIGNMENT((#744));
#695=PRESENTATION_STYLE_ASSIGNMENT((#745));
#696=PRESENTATION_STYLE_ASSIGNMENT((#746));
#697=PRESENTATION_STYLE_ASSIGNMENT((#747));
#698=PRESENTATION_STYLE_ASSIGNMENT((#748));
#699=PRESENTATION_STYLE_ASSIGNMENT((#749));
#700=PRESENTATION_STYLE_ASSIGNMENT((#750));
#701=PRESENTATION_STYLE_ASSIGNMENT((#751));
#702=PRESENTATION_STYLE_ASSIGNMENT((#752));
#703=PRESENTATION_STYLE_ASSIGNMENT((#753));
#704=PRESENTATION_STYLE_ASSIGNMENT((#754));
#705=PRESENTATION_STYLE_ASSIGNMENT((#755));
#706=PRESENTATION_STYLE_ASSIGNMENT((#756));
#707=PRESENTATION_STYLE_ASSIGNMENT((#757));
#708=PRESENTATION_STYLE_ASSIGNMENT((#758));
#709=PRESENTATION_STYLE_ASSIGNMENT((#759));
#710=PRESENTATION_STYLE_ASSIGNMENT((#760));
#711=PRESENTATION_STYLE_ASSIGNMENT((#761));
#712=PRESENTATION_STYLE_ASSIGNMENT((#762));
#713=PRESENTATION_STYLE_ASSIGNMENT((#763));
#714=PRESENTATION_STYLE_ASSIGNMENT((#764));
#715=PRESENTATION_STYLE_ASSIGNMENT((#765));
#716=PRESENTATION_STYLE_ASSIGNMENT((#766));
#717=PRESENTATION_STYLE_ASSIGNMENT((#767));
#718=PRESENTATION_STYLE_ASSIGNMENT((#768));
#719=PRESENTATION_STYLE_ASSIGNMENT((#769));
#720=PRESENTATION_STYLE_ASSIGNMENT((#770));
#721=PRESENTATION_STYLE_ASSIGNMENT((#771));
#722=SURFACE_STYLE_USAGE(.BOTH.,#772);
#723=SURFACE_STYLE_USAGE(.BOTH.,#773);
#724=SURFACE_STYLE_USAGE(.BOTH.,#774);
#725=SURFACE_STYLE_USAGE(.BOTH.,#775);
#726=SURFACE_STYLE_USAGE(.BOTH.,#776);
#727=SURFACE_STYLE_USAGE(.BOTH.,#777);
#728=SURFACE_STYLE_USAGE(.BOTH.,#778);
#729=SURFACE_STYLE_USAGE(.BOTH.,#779);
#730=SURFACE_STYLE_USAGE(.BOTH.,#780);
#731=SURFACE_STYLE_USAGE(.BOTH.,#781);
#732=SURFACE_STYLE_USAGE(.BOTH.,#782);
#733=SURFACE_STYLE_USAGE(.BOTH.,#783);
#734=SURFACE_STYLE_USAGE(.BOTH.,#784);
#735=SURFACE_STYLE_USAGE(.BOTH.,#785);
#736=SURFACE_STYLE_USAGE(.BOTH.,#786);
#737=SURFACE_STYLE_USAGE(.BOTH.,#787);
#738=SURFACE_STYLE_USAGE(.BOTH.,#788);
#739=SURFACE_STYLE_USAGE(.BOTH.,#789);
#740=SURFACE_STYLE_USAGE(.BOTH.,#790);
#741=SURFACE_STYLE_USAGE(.BOTH.,#791);
#742=SURFACE_STYLE_USAGE(.BOTH.,#792);
#743=SURFACE_STYLE_USAGE(.BOTH.,#793);
#744=SURFACE_STYLE_USAGE(.BOTH.,#794);
#745=SURFACE_STYLE_USAGE(.BOTH.,#795);
#746=SURFACE_STYLE_USAGE(.BOTH.,#796);
#747=SURFACE_STYLE_USAGE(.BOTH.,#797);
#748=SURFACE_STYLE_USAGE(.BOTH.,#798);
#749=SURFACE_STYLE_USAGE(.BOTH.,#799);
#750=SURFACE_STYLE_USAGE(.BOTH.,#800);
#751=SURFACE_STYLE_USAGE(.BOTH.,#801);
#752=SURFACE_STYLE_USAGE(.BOTH.,#802);
#753=SURFACE_STYLE_USAGE(.BOTH.,#803);
#754=SURFACE_STYLE_USAGE(.BOTH.,#804);
#755=SURFACE_STYLE_USAGE(.BOTH.,#805);
#756=SURFACE_STYLE_USAGE(.BOTH.,#806);
#757=SURFACE_STYLE_USAGE(.BOTH.,#807);
#758=SURFACE_STYLE_USAGE(.BOTH.,#808);
#759=SURFACE_STYLE_USAGE(.BOTH.,#809);
#760=SURFACE_STYLE_USAGE(.BOTH.,#810);
#761=SURFACE_STYLE_USAGE(.BOTH.,#811);
#762=SURFACE_STYLE_USAGE(.BOTH.,#812);
#763=SURFACE_STYLE_USAGE(.BOTH.,#813);
#764=SURFACE_STYLE_USAGE(.BOTH.,#814);
#765=SURFACE_STYLE_USAGE(.BOTH.,#815);
#766=SURFACE_STYLE_USAGE(.BOTH.,#816);
#767=SURFACE_STYLE_USAGE(.BOTH.,#817);
#768=SURFACE_STYLE_USAGE(.BOTH.,#818);
#769=SURFACE_STYLE_USAGE(.BOTH.,#819);
#770=SURFACE_STYLE_USAGE(.BOTH.,#820);
#771=SURFACE_STYLE_USAGE(.BOTH.,#821);
#772=SURFACE_SIDE_STYLE('',(#822));
#773=SURFACE_SIDE_STYLE('',(#823));
#774=SURFACE_SIDE_STYLE('',(#824));
#775=SURFACE_SIDE_STYLE('',(#825));
#776=SURFACE_SIDE_STYLE('',(#826));
#777=SURFACE_SIDE_STYLE('',(#827));
#778=SURFACE_SIDE_STYLE('',(#828));
#779=SURFACE_SIDE_STYLE('',(#829));
#780=SURFACE_SIDE_STYLE('',(#830));
#781=SURFACE_SIDE_STYLE('',(#831));
#782=SURFACE_SIDE_STYLE('',(#832));
#783=SURFACE_SIDE_STYLE('',(#833));
#784=SURFACE_SIDE_STYLE('',(#834));
#785=SURFACE_SIDE_STYLE('',(#835));
#786=SURFACE_SIDE_STYLE('',(#836));
#787=SURFACE_SIDE_STYLE('',(#837));
#788=SURFACE_SIDE_STYLE('',(#838));
#789=SURFACE_SIDE_STYLE('',(#839));
#790=SURFACE_SIDE_STYLE('',(#840));
#791=SURFACE_SIDE_STYLE('',(#841));
#792=SURFACE_SIDE_STYLE('',(#842));
#793=SURFACE_SIDE_STYLE('',(#843));
#794=SURFACE_SIDE_STYLE('',(#844));
#795=SURFACE_SIDE_STYLE('',(#845));
#796=SURFACE_SIDE_STYLE('',(#846));
#797=SURFACE_SIDE_STYLE('',(#847));
#798=SURFACE_SIDE_STYLE('',(#848));
#799=SURFACE_SIDE_STYLE('',(#849));
#800=SURFACE_SIDE_STYLE('',(#850));
#801=SURFACE_SIDE_STYLE('',(#851));
#802=SURFACE_SIDE_STYLE('',(#852));
#803=SURFACE_SIDE_STYLE('',(#853));
#804=SURFACE_SIDE_STYLE('',(#854));
#805=SURFACE_SIDE_STYLE('',(#855));
#806=SURFACE_SIDE_STYLE('',(#856));
#807=SURFACE_SIDE_STYLE('',(#857));
#808=SURFACE_SIDE_STYLE('',(#858));
#809=SURFACE_SIDE_STYLE('',(#859));
#810=SURFACE_SIDE_STYLE('',(#860));
#811=SURFACE_SIDE_STYLE('',(#861));
#812=SURFACE_SIDE_STYLE('',(#862));
#813=SURFACE_SIDE_STYLE('',(#863));
#814=SURFACE_SIDE_STYLE('',(#864));
#815=SURFACE_SIDE_STYLE('',(#865));
#816=SURFACE_SIDE_STYLE('',(#866));
#817=SURFACE_SIDE_STYLE('',(#867));
#818=SURFACE_SIDE_STYLE('',(#868));
#819=SURFACE_SIDE_STYLE('',(#869));
#820=SURFACE_SIDE_STYLE('',(#870));
#821=SURFACE_SIDE_STYLE('',(#871));
#822=SURFACE_STYLE_FILL_AREA(#872);
#823=SURFACE_STYLE_FILL_AREA(#873);
#824=SURFACE_STYLE_FILL_AREA(#874);
#825=SURFACE_STYLE_FILL_AREA(#875);
#826=SURFACE_STYLE_FILL_AREA(#876);
#827=SURFACE_STYLE_FILL_AREA(#877);
#828=SURFACE_STYLE_FILL_AREA(#878);
#829=SURFACE_STYLE_FILL_AREA(#879);
#830=SURFACE_STYLE_FILL_AREA(#880);
#831=SURFACE_STYLE_FILL_AREA(#881);
#832=SURFACE_STYLE_FILL_AREA(#882);
#833=SURFACE_STYLE_FILL_AREA(#883);
#834=SURFACE_STYLE_FILL_AREA(#884);
#835=SURFACE_STYLE_FILL_AREA(#885);
#836=SURFACE_STYLE_FILL_AREA(#886);
#837=SURFACE_STYLE_FILL_AREA(#887);
#838=SURFACE_STYLE_FILL_AREA(#888);
#839=SURFACE_STYLE_FILL_AREA(#889);
#840=SURFACE_STYLE_FILL_AREA(#890);
#841=SURFACE_STYLE_FILL_AREA(#891);
#842=SURFACE_STYLE_FILL_AREA(#892);
#843=SURFACE_STYLE_FILL_AREA(#893);
#844=SURFACE_STYLE_FILL_AREA(#894);
#845=SURFACE_STYLE_FILL_AREA(#895);
#846=SURFACE_STYLE_FILL_AREA(#896);
#847=SURFACE_STYLE_FILL_AREA(#897);
#848=SURFACE_STYLE_FILL_AREA(#898);
#849=SURFACE_STYLE_FILL_AREA(#899);
#850=SURFACE_STYLE_FILL_AREA(#900);
#851=SURFACE_STYLE_FILL_AREA(#901);
#852=SURFACE_STYLE_FILL_AREA(#902);
#853=SURFACE_STYLE_FILL_AREA(#903);
#854=SURFACE_STYLE_FILL_AREA(#904);
#855=SURFACE_STYLE_FILL_AREA(#905);
#856=SURFACE_STYLE_FILL_AREA(#906);
#857=SURFACE_STYLE_FILL_AREA(#907);
#858=SURFACE_STYLE_FILL_AREA(#908);
#859=SURFACE_STYLE_FILL_AREA(#909);
#860=SURFACE_STYLE_FILL_AREA(#910);
#861=SURFACE_STYLE_FILL_AREA(#911);
#862=SURFACE_STYLE_FILL_AREA(#912);
#863=SURFACE_STYLE_FILL_AREA(#913);
#864=SURFACE_STYLE_FILL_AREA(#914);
#865=SURFACE_STYLE_FILL_AREA(#915);
#866=SURFACE_STYLE_FILL_AREA(#916);
#867=SURFACE_STYLE_FILL_AREA(#917);
#868=SURFACE_STYLE_FILL_AREA(#918);
#869=SURFACE_STYLE_FILL_AREA(#919);
#870=SURFACE_STYLE_FILL_AREA(#920);
#871=SURFACE_STYLE_FILL_AREA(#921);
#872=FILL_AREA_STYLE('',(#922));
#873=FILL_AREA_STYLE('',(#923));
#874=FILL_AREA_STYLE('',(#924));
#875=FILL_AREA_STYLE('',(#925));
#876=FILL_AREA_STYLE('',(#926));
#877=FILL_AREA_STYLE('',(#927));
#878=FILL_AREA_STYLE('',(#928));
#879=FILL_AREA_STYLE('',(#929));
#880=FILL_AREA_STYLE('',(#930));
#881=FILL_AREA_STYLE('',(#931));
#882=FILL_AREA_STYLE('',(#932));
#883=FILL_AREA_STYLE('',(#933));
#884=FILL_AREA_STYLE('',(#934));
#885=FILL_AREA_STYLE('',(#935));
#886=FILL_AREA_STYLE('',(#936));
#887=FILL_AREA_STYLE('',(#937));
#888=FILL_AREA_STYLE('',(#938));
#889=FILL_AREA_STYLE('',(#939));
#890=FILL_AREA_STYLE('',(#940));
#891=FILL_AREA_STYLE('',(#941));
#892=FILL_AREA_STYLE('',(#942));
#893=FILL_AREA_STYLE('',(#943));
#894=FILL_AREA_STYLE('',(#944));
#895=FILL_AREA_STYLE('',(#945));
#896=FILL_AREA_STYLE('',(#946));
#897=FILL_AREA_STYLE('',(#947));
#898=FILL_AREA_STYLE('',(#948));
#899=FILL_AREA_STYLE('',(#949));
#900=FILL_AREA_STYLE('',(#950));
#901=FILL_AREA_STYLE('',(#951));
#902=FILL_AREA_STYLE('',(#952));
#903=FILL_AREA_STYLE('',(#953));
#904=FILL_AREA_STYLE('',(#954));
#905=FILL_AREA_STYLE('',(#955));
#906=FILL_AREA_STYLE('',(#956));
#907=FILL_AREA_STYLE('',(#957));
#908=FILL_AREA_STYLE('',(#958));
#909=FILL_AREA_STYLE('',(#959));
#910=FILL_AREA_STYLE('',(#960));
#911=FILL_AREA_STYLE('',(#961));
#912=FILL_AREA_STYLE('',(#962));
#913=FILL_AREA_STYLE('',(#963));
#914=FILL_AREA_STYLE('',(#964));
#915=FILL_AREA_STYLE('',(#965));
#916=FILL_AREA_STYLE('',(#966));
#917=FILL_AREA_STYLE('',(#967));
#918=FILL_AREA_STYLE('',(#968));
#919=FILL_AREA_STYLE('',(#969));
#920=FILL_AREA_STYLE('',(#970));
#921=FILL_AREA_STYLE('',(#971));
#922=FILL_AREA_STYLE_COLOUR('',#972);
#923=FILL_AREA_STYLE_COLOUR('',#972);
#924=FILL_AREA_STYLE_COLOUR('',#972);
#925=FILL_AREA_STYLE_COLOUR('',#972);
#926=FILL_AREA_STYLE_COLOUR('',#972);
#927=FILL_AREA_STYLE_COLOUR('',#972);
#928=FILL_AREA_STYLE_COLOUR('',#972);
#929=FILL_AREA_STYLE_COLOUR('',#972);
#930=FILL_AREA_STYLE_COLOUR('',#972);
#931=FILL_AREA_STYLE_COLOUR('',#972);
#932=FILL_AREA_STYLE_COLOUR('',#972);
#933=FILL_AREA_STYLE_COLOUR('',#972);
#934=FILL_AREA_STYLE_COLOUR('',#972);
#935=FILL_AREA_STYLE_COLOUR('',#972);
#936=FILL_AREA_STYLE_COLOUR('',#972);
#937=FILL_AREA_STYLE_COLOUR('',#972);
#938=FILL_AREA_STYLE_COLOUR('',#972);
#939=FILL_AREA_STYLE_COLOUR('',#972);
#940=FILL_AREA_STYLE_COLOUR('',#972);
#941=FILL_AREA_STYLE_COLOUR('',#972);
#942=FILL_AREA_STYLE_COLOUR('',#972);
#943=FILL_AREA_STYLE_COLOUR('',#972);
#944=FILL_AREA_STYLE_COLOUR('',#972);
#945=FILL_AREA_STYLE_COLOUR('',#972);
#946=FILL_AREA_STYLE_COLOUR('',#972);
#947=FILL_AREA_STYLE_COLOUR('',#972);
#948=FILL_AREA_STYLE_COLOUR('',#972);
#949=FILL_AREA_STYLE_COLOUR('',#972);
#950=FILL_AREA_STYLE_COLOUR('',#972);
#951=FILL_AREA_STYLE_COLOUR('',#972);
#952=FILL_AREA_STYLE_COLOUR('',#972);
#953=FILL_AREA_STYLE_COLOUR('',#972);
#954=FILL_AREA_STYLE_COLOUR('',#972);
#955=FILL_AREA_STYLE_COLOUR('',#972);
#956=FILL_AREA_STYLE_COLOUR('',#972);
#957=FILL_AREA_STYLE_COLOUR('',#972);
#958=FILL_AREA_STYLE_COLOUR('',#972);
#959=FILL_AREA_STYLE_COLOUR('',#972);
#960=FILL_AREA_STYLE_COLOUR('',#972);
#961=FILL_AREA_STYLE_COLOUR('',#972);
#962=FILL_AREA_STYLE_COLOUR('',#972);
#963=FILL_AREA_STYLE_COLOUR('',#973);
#964=FILL_AREA_STYLE_COLOUR('',#973);
#965=FILL_AREA_STYLE_COLOUR('',#973);
#966=FILL_AREA_STYLE_COLOUR('',#973);
#967=FILL_AREA_STYLE_COLOUR('',#973);
#968=FILL_AREA_STYLE_COLOUR('',#973);
#969=FILL_AREA_STYLE_COLOUR('',#973);
#970=FILL_AREA_STYLE_COLOUR('',#973);
#971=FILL_AREA_STYLE_COLOUR('',#973);
#972=COLOUR_RGB('',0.689999997615814,0.689999997615814,0.689999997615814);
#973=COLOUR_RGB('',0.75300002098083,0.75300002098083,0.75300002098083);
#974=ADVANCED_FACE('',(#516,#517),#600,.F.);
#975=ADVANCED_FACE('',(#518),#47,.T.);
#976=ADVANCED_FACE('',(#519,#520),#43,.T.);
#977=ADVANCED_FACE('',(#521,#522),#42,.F.);
#978=ADVANCED_FACE('',(#523,#524),#44,.F.);
#979=ADVANCED_FACE('',(#525,#526),#45,.T.);
#980=ADVANCED_FACE('',(#527,#528),#38,.T.);
#981=ADVANCED_FACE('',(#529,#530),#601,.F.);
#982=ADVANCED_FACE('',(#531,#532),#20,.T.);
#983=ADVANCED_FACE('',(#533,#534),#602,.F.);
#984=ADVANCED_FACE('',(#535,#536),#21,.T.);
#985=ADVANCED_FACE('',(#537,#538),#46,.T.);
#986=ADVANCED_FACE('',(#539),#22,.F.);
#987=ADVANCED_FACE('',(#540),#603,.T.);
#988=ADVANCED_FACE('',(#541),#23,.T.);
#989=ADVANCED_FACE('',(#542),#604,.T.);
#990=ADVANCED_FACE('',(#543),#24,.T.);
#991=ADVANCED_FACE('',(#544),#605,.F.);
#992=ADVANCED_FACE('',(#545),#25,.T.);
#993=ADVANCED_FACE('',(#546),#606,.F.);
#994=ADVANCED_FACE('',(#547,#548),#26,.T.);
#995=ADVANCED_FACE('',(#549,#550),#27,.T.);
#996=ADVANCED_FACE('',(#551),#28,.T.);
#997=ADVANCED_FACE('',(#552,#553),#29,.T.);
#998=ADVANCED_FACE('',(#554),#607,.T.);
#999=ADVANCED_FACE('',(#555,#556,#557,#558,#559),#608,.F.);
#1000=ADVANCED_FACE('',(#560,#561),#609,.F.);
#1001=ADVANCED_FACE('',(#562,#563),#610,.F.);
#1002=ADVANCED_FACE('',(#564,#565),#611,.F.);
#1003=ADVANCED_FACE('',(#566,#567),#612,.F.);
#1004=ADVANCED_FACE('',(#568,#569),#30,.F.);
#1005=ADVANCED_FACE('',(#570,#571),#613,.F.);
#1006=ADVANCED_FACE('',(#572,#573),#31,.F.);
#1007=ADVANCED_FACE('',(#574,#575),#614,.F.);
#1008=ADVANCED_FACE('',(#576,#577),#32,.F.);
#1009=ADVANCED_FACE('',(#578,#579),#615,.F.);
#1010=ADVANCED_FACE('',(#580),#616,.T.);
#1011=ADVANCED_FACE('',(#581),#33,.F.);
#1012=ADVANCED_FACE('',(#582),#617,.T.);
#1013=ADVANCED_FACE('',(#583),#34,.F.);
#1014=ADVANCED_FACE('',(#584),#618,.F.);
#1015=ADVANCED_FACE('',(#585,#586),#35,.T.);
#1016=ADVANCED_FACE('',(#587,#588),#39,.T.);
#1017=ADVANCED_FACE('',(#589),#619,.F.);
#1018=ADVANCED_FACE('',(#590,#591),#36,.T.);
#1019=ADVANCED_FACE('',(#592,#593),#40,.T.);
#1020=ADVANCED_FACE('',(#594),#620,.F.);
#1021=ADVANCED_FACE('',(#595,#596),#37,.T.);
#1022=ADVANCED_FACE('',(#597,#598),#41,.T.);
#1023=ADVANCED_FACE('',(#599),#621,.F.);
#1024=CLOSED_SHELL('',(#974,#975,#976,#977,#978,#979,#980,#981,#982,#983,
#984,#985,#986,#987,#988,#989,#990,#991,#992,#993,#994,#995,#996,#997,#998,
#999,#1000,#1001,#1002,#1003,#1004,#1005,#1006,#1007,#1008,#1009,#1010,
#1011,#1012,#1013,#1014,#1015,#1016,#1017,#1018,#1019,#1020,#1021,#1022,
#1023));
#1025=MANIFOLD_SOLID_BREP('DV1520',#1024);
#1026=SHAPE_DEFINITION_REPRESENTATION(#1538,#1027);
#1027=SHAPE_REPRESENTATION('DV1520',(#1028),#1533);
#1028=AXIS2_PLACEMENT_3D('',#1347,#1125,#1126);
#1029=AXIS2_PLACEMENT_3D('',#1348,#1127,#1128);
#1030=AXIS2_PLACEMENT_3D('',#1349,#1129,#1130);
#1031=AXIS2_PLACEMENT_3D('',#1351,#1131,#1132);
#1032=AXIS2_PLACEMENT_3D('',#1356,#1134,#1135);
#1033=AXIS2_PLACEMENT_3D('',#1360,#1137,#1138);
#1034=AXIS2_PLACEMENT_3D('',#1363,#1140,#1141);
#1035=AXIS2_PLACEMENT_3D('',#1364,#1142,#1143);
#1036=AXIS2_PLACEMENT_3D('',#1366,#1144,#1145);
#1037=AXIS2_PLACEMENT_3D('',#1367,#1146,#1147);
#1038=AXIS2_PLACEMENT_3D('',#1369,#1148,#1149);
#1039=AXIS2_PLACEMENT_3D('',#1370,#1150,#1151);
#1040=AXIS2_PLACEMENT_3D('',#1372,#1152,#1153);
#1041=AXIS2_PLACEMENT_3D('',#1373,#1154,#1155);
#1042=AXIS2_PLACEMENT_3D('',#1375,#1156,#1157);
#1043=AXIS2_PLACEMENT_3D('',#1376,#1158,#1159);
#1044=AXIS2_PLACEMENT_3D('',#1378,#1160,#1161);
#1045=AXIS2_PLACEMENT_3D('',#1379,#1162,#1163);
#1046=AXIS2_PLACEMENT_3D('',#1381,#1164,#1165);
#1047=AXIS2_PLACEMENT_3D('',#1382,#1166,#1167);
#1048=AXIS2_PLACEMENT_3D('',#1384,#1168,#1169);
#1049=AXIS2_PLACEMENT_3D('',#1385,#1170,#1171);
#1050=AXIS2_PLACEMENT_3D('',#1387,#1172,#1173);
#1051=AXIS2_PLACEMENT_3D('',#1388,#1174,#1175);
#1052=AXIS2_PLACEMENT_3D('',#1390,#1176,#1177);
#1053=AXIS2_PLACEMENT_3D('',#1391,#1178,#1179);
#1054=AXIS2_PLACEMENT_3D('',#1393,#1180,#1181);
#1055=AXIS2_PLACEMENT_3D('',#1394,#1182,#1183);
#1056=AXIS2_PLACEMENT_3D('',#1397,#1185,#1186);
#1057=AXIS2_PLACEMENT_3D('',#1400,#1188,#1189);
#1058=AXIS2_PLACEMENT_3D('',#1404,#1192,#1193);
#1059=AXIS2_PLACEMENT_3D('',#1405,#1194,#1195);
#1060=AXIS2_PLACEMENT_3D('',#1408,#1197,#1198);
#1061=AXIS2_PLACEMENT_3D('',#1412,#1201,#1202);
#1062=AXIS2_PLACEMENT_3D('',#1413,#1203,#1204);
#1063=AXIS2_PLACEMENT_3D('',#1416,#1206,#1207);
#1064=AXIS2_PLACEMENT_3D('',#1425,#1212,#1213);
#1065=AXIS2_PLACEMENT_3D('',#1426,#1214,#1215);
#1066=AXIS2_PLACEMENT_3D('',#1430,#1217,#1218);
#1067=AXIS2_PLACEMENT_3D('',#1431,#1219,#1220);
#1068=AXIS2_PLACEMENT_3D('',#1437,#1224,#1225);
#1069=AXIS2_PLACEMENT_3D('',#1438,#1226,#1227);
#1070=AXIS2_PLACEMENT_3D('',#1440,#1228,#1229);
#1071=AXIS2_PLACEMENT_3D('',#1442,#1230,#1231);
#1072=AXIS2_PLACEMENT_3D('',#1443,#1232,#1233);
#1073=AXIS2_PLACEMENT_3D('',#1445,#1234,#1235);
#1074=AXIS2_PLACEMENT_3D('',#1447,#1236,#1237);
#1075=AXIS2_PLACEMENT_3D('',#1448,#1238,#1239);
#1076=AXIS2_PLACEMENT_3D('',#1449,#1240,#1241);
#1077=AXIS2_PLACEMENT_3D('',#1450,#1242,#1243);
#1078=AXIS2_PLACEMENT_3D('',#1451,#1244,#1245);
#1079=AXIS2_PLACEMENT_3D('',#1453,#1246,#1247);
#1080=AXIS2_PLACEMENT_3D('',#1455,#1248,#1249);
#1081=AXIS2_PLACEMENT_3D('',#1457,#1251,#1252);
#1082=AXIS2_PLACEMENT_3D('',#1458,#1253,#1254);
#1083=AXIS2_PLACEMENT_3D('',#1459,#1255,#1256);
#1084=AXIS2_PLACEMENT_3D('',#1461,#1257,#1258);
#1085=AXIS2_PLACEMENT_3D('',#1465,#1260,#1261);
#1086=AXIS2_PLACEMENT_3D('',#1469,#1263,#1264);
#1087=AXIS2_PLACEMENT_3D('',#1470,#1265,#1266);
#1088=AXIS2_PLACEMENT_3D('',#1471,#1267,#1268);
#1089=AXIS2_PLACEMENT_3D('',#1473,#1269,#1270);
#1090=AXIS2_PLACEMENT_3D('',#1474,#1271,#1272);
#1091=AXIS2_PLACEMENT_3D('',#1476,#1273,#1274);
#1092=AXIS2_PLACEMENT_3D('',#1477,#1275,#1276);
#1093=AXIS2_PLACEMENT_3D('',#1479,#1277,#1278);
#1094=AXIS2_PLACEMENT_3D('',#1480,#1279,#1280);
#1095=AXIS2_PLACEMENT_3D('',#1482,#1281,#1282);
#1096=AXIS2_PLACEMENT_3D('',#1483,#1283,#1284);
#1097=AXIS2_PLACEMENT_3D('',#1485,#1285,#1286);
#1098=AXIS2_PLACEMENT_3D('',#1486,#1287,#1288);
#1099=AXIS2_PLACEMENT_3D('',#1488,#1289,#1290);
#1100=AXIS2_PLACEMENT_3D('',#1489,#1291,#1292);
#1101=AXIS2_PLACEMENT_3D('',#1491,#1293,#1294);
#1102=AXIS2_PLACEMENT_3D('',#1492,#1295,#1296);
#1103=AXIS2_PLACEMENT_3D('',#1494,#1297,#1298);
#1104=AXIS2_PLACEMENT_3D('',#1500,#1302,#1303);
#1105=AXIS2_PLACEMENT_3D('',#1501,#1304,#1305);
#1106=AXIS2_PLACEMENT_3D('',#1504,#1307,#1308);
#1107=AXIS2_PLACEMENT_3D('',#1508,#1311,#1312);
#1108=AXIS2_PLACEMENT_3D('',#1509,#1313,#1314);
#1109=AXIS2_PLACEMENT_3D('',#1510,#1315,#1316);
#1110=AXIS2_PLACEMENT_3D('',#1511,#1317,#1318);
#1111=AXIS2_PLACEMENT_3D('',#1512,#1319,#1320);
#1112=AXIS2_PLACEMENT_3D('',#1514,#1321,#1322);
#1113=AXIS2_PLACEMENT_3D('',#1515,#1323,#1324);
#1114=AXIS2_PLACEMENT_3D('',#1517,#1325,#1326);
#1115=AXIS2_PLACEMENT_3D('',#1518,#1327,#1328);
#1116=AXIS2_PLACEMENT_3D('',#1519,#1329,#1330);
#1117=AXIS2_PLACEMENT_3D('',#1521,#1331,#1332);
#1118=AXIS2_PLACEMENT_3D('',#1522,#1333,#1334);
#1119=AXIS2_PLACEMENT_3D('',#1524,#1335,#1336);
#1120=AXIS2_PLACEMENT_3D('',#1525,#1337,#1338);
#1121=AXIS2_PLACEMENT_3D('',#1526,#1339,#1340);
#1122=AXIS2_PLACEMENT_3D('',#1528,#1341,#1342);
#1123=AXIS2_PLACEMENT_3D('',#1529,#1343,#1344);
#1124=AXIS2_PLACEMENT_3D('',#1531,#1345,#1346);
#1125=DIRECTION('',(0.,0.,1.));
#1126=DIRECTION('',(1.,0.,0.));
#1127=DIRECTION('',(0.,1.,0.));
#1128=DIRECTION('',(0.,0.,1.));
#1129=DIRECTION('',(0.,-1.,0.));
#1130=DIRECTION('',(0.,0.,-1.));
#1131=DIRECTION('',(0.,1.,0.));
#1132=DIRECTION('',(0.,0.,1.));
#1133=DIRECTION('',(-1.,0.,-1.09248044032292E-16));
#1134=DIRECTION('',(0.,1.,0.));
#1135=DIRECTION('',(0.,0.,1.));
#1136=DIRECTION('',(0.,0.,-1.));
#1137=DIRECTION('',(0.,1.,0.));
#1138=DIRECTION('',(0.,0.,1.));
#1139=DIRECTION('',(1.,0.,1.09248044032292E-16));
#1140=DIRECTION('',(0.,-1.,0.));
#1141=DIRECTION('',(1.,0.,0.));
#1142=DIRECTION('',(0.,-1.,0.));
#1143=DIRECTION('',(0.,0.,-1.));
#1144=DIRECTION('',(0.,-1.,0.));
#1145=DIRECTION('',(0.,0.,-1.));
#1146=DIRECTION('',(0.,-1.,0.));
#1147=DIRECTION('',(0.,0.,-1.));
#1148=DIRECTION('',(0.,-1.,0.));
#1149=DIRECTION('',(0.,0.,-1.));
#1150=DIRECTION('',(0.,-1.,0.));
#1151=DIRECTION('',(0.,0.,-1.));
#1152=DIRECTION('',(0.,-1.,0.));
#1153=DIRECTION('',(0.,0.,-1.));
#1154=DIRECTION('',(0.,-1.,0.));
#1155=DIRECTION('',(0.,0.,-1.));
#1156=DIRECTION('',(0.,-1.,0.));
#1157=DIRECTION('',(0.,0.,-1.));
#1158=DIRECTION('',(0.,-1.,0.));
#1159=DIRECTION('',(0.,0.,-1.));
#1160=DIRECTION('',(0.,-1.,0.));
#1161=DIRECTION('',(0.,0.,-1.));
#1162=DIRECTION('',(0.,-1.,0.));
#1163=DIRECTION('',(0.,0.,-1.));
#1164=DIRECTION('',(0.,1.,0.));
#1165=DIRECTION('',(0.,0.,1.));
#1166=DIRECTION('',(0.,-1.,0.));
#1167=DIRECTION('',(0.,0.,-1.));
#1168=DIRECTION('',(0.,-1.,0.));
#1169=DIRECTION('',(0.,0.,-1.));
#1170=DIRECTION('',(0.,-1.,0.));
#1171=DIRECTION('',(0.,0.,-1.));
#1172=DIRECTION('',(0.,-1.,0.));
#1173=DIRECTION('',(0.,0.,-1.));
#1174=DIRECTION('',(0.,-1.,0.));
#1175=DIRECTION('',(0.,0.,-1.));
#1176=DIRECTION('',(0.,-1.,0.));
#1177=DIRECTION('',(0.,0.,-1.));
#1178=DIRECTION('',(0.,-1.,0.));
#1179=DIRECTION('',(0.,0.,-1.));
#1180=DIRECTION('',(0.,-1.,0.));
#1181=DIRECTION('',(0.,0.,-1.));
#1182=DIRECTION('',(0.,-1.,0.));
#1183=DIRECTION('',(0.,0.,-1.));
#1184=DIRECTION('',(0.,-1.,0.));
#1185=DIRECTION('',(0.,1.,0.));
#1186=DIRECTION('',(1.,0.,0.));
#1187=DIRECTION('',(0.,-1.,0.));
#1188=DIRECTION('',(1.09248044032292E-16,0.,-1.));
#1189=DIRECTION('',(-1.,0.,-1.09248044032292E-16));
#1190=DIRECTION('',(1.,0.,1.09248044032292E-16));
#1191=DIRECTION('',(0.,-1.,0.));
#1192=DIRECTION('',(0.,-1.,0.));
#1193=DIRECTION('',(0.,0.,-1.));
#1194=DIRECTION('',(0.,1.,0.));
#1195=DIRECTION('',(1.,0.,0.));
#1196=DIRECTION('',(0.,-1.,0.));
#1197=DIRECTION('',(1.,0.,0.));
#1198=DIRECTION('',(0.,0.,-1.));
#1199=DIRECTION('',(0.,0.,1.));
#1200=DIRECTION('',(0.,-1.,0.));
#1201=DIRECTION('',(0.,-1.,0.));
#1202=DIRECTION('',(0.,0.,-1.));
#1203=DIRECTION('',(0.,1.,0.));
#1204=DIRECTION('',(1.,0.,0.));
#1205=DIRECTION('',(0.,-1.,0.));
#1206=DIRECTION('',(1.,0.,0.));
#1207=DIRECTION('',(0.,0.,-1.));
#1208=DIRECTION('',(0.,-1.,0.));
#1209=DIRECTION('',(0.,0.,1.));
#1210=DIRECTION('',(0.,-1.,0.));
#1211=DIRECTION('',(0.,0.,-1.));
#1212=DIRECTION('',(0.,-1.,0.));
#1213=DIRECTION('',(0.,0.,-1.));
#1214=DIRECTION('',(0.,1.,0.));
#1215=DIRECTION('',(1.,0.,0.));
#1216=DIRECTION('',(0.,-1.,0.));
#1217=DIRECTION('',(0.,1.,0.));
#1218=DIRECTION('',(0.,0.,1.));
#1219=DIRECTION('',(-1.,0.,0.));
#1220=DIRECTION('',(0.,0.,1.));
#1221=DIRECTION('',(0.,0.,-1.));
#1222=DIRECTION('',(0.,-1.,0.));
#1223=DIRECTION('',(0.,0.,1.));
#1224=DIRECTION('',(0.,-1.,0.));
#1225=DIRECTION('',(0.,0.,-1.));
#1226=DIRECTION('',(0.,1.,0.));
#1227=DIRECTION('',(1.,0.,0.));
#1228=DIRECTION('',(0.,1.,0.));
#1229=DIRECTION('',(0.,0.,1.));
#1230=DIRECTION('',(0.,-1.,0.));
#1231=DIRECTION('',(0.,0.,-1.));
#1232=DIRECTION('',(0.,1.,0.));
#1233=DIRECTION('',(1.,0.,0.));
#1234=DIRECTION('',(0.,1.,0.));
#1235=DIRECTION('',(0.,0.,1.));
#1236=DIRECTION('',(0.,-1.,0.));
#1237=DIRECTION('',(0.,0.,-1.));
#1238=DIRECTION('',(0.,1.,0.));
#1239=DIRECTION('',(1.,0.,0.));
#1240=DIRECTION('',(0.,1.,0.));
#1241=DIRECTION('',(0.,0.,1.));
#1242=DIRECTION('',(0.,-1.,0.));
#1243=DIRECTION('',(0.,0.,-1.));
#1244=DIRECTION('',(0.,1.,0.));
#1245=DIRECTION('',(1.,0.,0.));
#1246=DIRECTION('',(0.,1.,0.));
#1247=DIRECTION('',(0.,0.,1.));
#1248=DIRECTION('',(-1.09248044032292E-16,0.,1.));
#1249=DIRECTION('',(1.,0.,1.09248044032292E-16));
#1250=DIRECTION('',(-1.,0.,-1.09248044032292E-16));
#1251=DIRECTION('',(0.,1.,0.));
#1252=DIRECTION('',(0.,0.,1.));
#1253=DIRECTION('',(0.,1.,0.));
#1254=DIRECTION('',(0.,0.,1.));
#1255=DIRECTION('',(0.,1.,0.));
#1256=DIRECTION('',(1.,0.,0.));
#1257=DIRECTION('',(0.,1.,0.));
#1258=DIRECTION('',(0.,0.,1.));
#1259=DIRECTION('',(0.,0.,1.));
#1260=DIRECTION('',(0.,1.,0.));
#1261=DIRECTION('',(1.,0.,0.));
#1262=DIRECTION('',(0.,0.,-1.));
#1263=DIRECTION('',(0.,1.,0.));
#1264=DIRECTION('',(1.,0.,0.));
#1265=DIRECTION('',(0.,1.,0.));
#1266=DIRECTION('',(0.,0.,1.));
#1267=DIRECTION('',(0.,1.,0.));
#1268=DIRECTION('',(0.,0.,1.));
#1269=DIRECTION('',(0.,1.,0.));
#1270=DIRECTION('',(0.,0.,1.));
#1271=DIRECTION('',(0.,1.,0.));
#1272=DIRECTION('',(1.,0.,0.));
#1273=DIRECTION('',(0.,-1.,0.));
#1274=DIRECTION('',(0.,0.,-1.));
#1275=DIRECTION('',(0.,1.,0.));
#1276=DIRECTION('',(1.,0.,0.));
#1277=DIRECTION('',(0.,1.,0.));
#1278=DIRECTION('',(0.,0.,1.));
#1279=DIRECTION('',(0.,1.,0.));
#1280=DIRECTION('',(0.,0.,1.));
#1281=DIRECTION('',(0.,-1.,0.));
#1282=DIRECTION('',(0.,0.,-1.));
#1283=DIRECTION('',(0.,1.,0.));
#1284=DIRECTION('',(1.,0.,0.));
#1285=DIRECTION('',(0.,1.,0.));
#1286=DIRECTION('',(0.,0.,1.));
#1287=DIRECTION('',(0.,1.,0.));
#1288=DIRECTION('',(0.,0.,1.));
#1289=DIRECTION('',(0.,-1.,0.));
#1290=DIRECTION('',(0.,0.,-1.));
#1291=DIRECTION('',(0.,1.,0.));
#1292=DIRECTION('',(1.,0.,0.));
#1293=DIRECTION('',(0.,1.,0.));
#1294=DIRECTION('',(0.,0.,1.));
#1295=DIRECTION('',(0.,1.,0.));
#1296=DIRECTION('',(0.,0.,1.));
#1297=DIRECTION('',(1.,0.,0.));
#1298=DIRECTION('',(0.,0.,-1.));
#1299=DIRECTION('',(0.,-1.,0.));
#1300=DIRECTION('',(0.,0.,1.));
#1301=DIRECTION('',(0.,-1.,0.));
#1302=DIRECTION('',(0.,-1.,0.));
#1303=DIRECTION('',(0.,0.,-1.));
#1304=DIRECTION('',(0.,1.,0.));
#1305=DIRECTION('',(1.,0.,0.));
#1306=DIRECTION('',(0.,-1.,0.));
#1307=DIRECTION('',(-1.,0.,0.));
#1308=DIRECTION('',(0.,0.,1.));
#1309=DIRECTION('',(0.,0.,-1.));
#1310=DIRECTION('',(0.,-1.,0.));
#1311=DIRECTION('',(0.,-1.,0.));
#1312=DIRECTION('',(0.,0.,-1.));
#1313=DIRECTION('',(0.,1.,0.));
#1314=DIRECTION('',(1.,0.,0.));
#1315=DIRECTION('',(0.,1.,0.));
#1316=DIRECTION('',(0.,0.,1.));
#1317=DIRECTION('',(0.,-1.,0.));
#1318=DIRECTION('',(0.,0.,-1.));
#1319=DIRECTION('',(0.,-1.,0.));
#1320=DIRECTION('',(0.,0.,-1.));
#1321=DIRECTION('',(0.,1.,0.));
#1322=DIRECTION('',(0.,0.,1.));
#1323=DIRECTION('',(0.,-1.,0.));
#1324=DIRECTION('',(0.,0.,-1.));
#1325=DIRECTION('',(0.,1.,0.));
#1326=DIRECTION('',(0.,0.,1.));
#1327=DIRECTION('',(0.,-1.,0.));
#1328=DIRECTION('',(0.,0.,-1.));
#1329=DIRECTION('',(0.,-1.,0.));
#1330=DIRECTION('',(0.,0.,-1.));
#1331=DIRECTION('',(0.,1.,0.));
#1332=DIRECTION('',(0.,0.,1.));
#1333=DIRECTION('',(0.,-1.,0.));
#1334=DIRECTION('',(0.,0.,-1.));
#1335=DIRECTION('',(0.,1.,0.));
#1336=DIRECTION('',(0.,0.,1.));
#1337=DIRECTION('',(0.,-1.,0.));
#1338=DIRECTION('',(0.,0.,-1.));
#1339=DIRECTION('',(0.,-1.,0.));
#1340=DIRECTION('',(0.,0.,-1.));
#1341=DIRECTION('',(0.,1.,0.));
#1342=DIRECTION('',(0.,0.,1.));
#1343=DIRECTION('',(0.,-1.,0.));
#1344=DIRECTION('',(0.,0.,-1.));
#1345=DIRECTION('',(0.,1.,0.));
#1346=DIRECTION('',(0.,0.,1.));
#1347=CARTESIAN_POINT('',(0.,0.,0.));
#1348=CARTESIAN_POINT('',(34.,1.95156391047391E-15,0.));
#1349=CARTESIAN_POINT('',(0.,3.90312782094782E-15,0.));
#1350=CARTESIAN_POINT('',(0.,3.90312782094782E-15,-34.));
#1351=CARTESIAN_POINT('',(-1.6144447974667E-15,1.95156391047391E-15,2.25080371007991E-13));
#1352=CARTESIAN_POINT('',(-32.9848450049413,1.95156391047391E-15,-1.));
#1353=CARTESIAN_POINT('',(-32.9848450049413,1.95156391047391E-15,0.999999999999996));
#1354=CARTESIAN_POINT('',(34.,1.95156391047391E-15,-0.999999999999997));
#1355=CARTESIAN_POINT('',(-31.,1.95156391047391E-15,-1.));
#1356=CARTESIAN_POINT('',(-31.,1.95156391047391E-15,-0.499999999999999));
#1357=CARTESIAN_POINT('',(-30.5,1.95156391047391E-15,-0.500000000000004));
#1358=CARTESIAN_POINT('',(-30.5,1.95156391047391E-15,0.));
#1359=CARTESIAN_POINT('',(-30.5,1.95156391047391E-15,0.499999999999996));
#1360=CARTESIAN_POINT('',(-31.,1.95156391047391E-15,0.499999999999994));
#1361=CARTESIAN_POINT('',(-31.,1.95156391047391E-15,0.999999999999994));
#1362=CARTESIAN_POINT('',(34.,1.95156391047391E-15,1.));
#1363=CARTESIAN_POINT('',(4.16333634234434E-14,179.,0.));
#1364=CARTESIAN_POINT('',(0.,241.157632234253,0.));
#1365=CARTESIAN_POINT('',(0.,241.157632234253,-19.0112796789522));
#1366=CARTESIAN_POINT('',(0.,232.551190847972,0.));
#1367=CARTESIAN_POINT('',(0.,233.129878165123,0.));
#1368=CARTESIAN_POINT('',(0.,233.129878165123,-25.360324988055));
#1369=CARTESIAN_POINT('',(0.,23.4000000000311,0.));
#1370=CARTESIAN_POINT('',(0.,51.8387979722193,0.));
#1371=CARTESIAN_POINT('',(0.,51.8387979722193,-31.9860223495372));
#1372=CARTESIAN_POINT('',(0.,51.9085479212591,0.));
#1373=CARTESIAN_POINT('',(0.,46.8758772516532,0.));
#1374=CARTESIAN_POINT('',(0.,46.8758772516532,-33.7670185800067));
#1375=CARTESIAN_POINT('',(0.,44.045,0.));
#1376=CARTESIAN_POINT('',(0.,44.0628533826881,0.));
#1377=CARTESIAN_POINT('',(0.,44.0628533826881,-34.7689645839414));
#1378=CARTESIAN_POINT('',(0.,44.0628533826881,0.));
#1379=CARTESIAN_POINT('',(0.,31.,0.));
#1380=CARTESIAN_POINT('',(0.,31.,-35.));
#1381=CARTESIAN_POINT('',(35.,31.,0.));
#1382=CARTESIAN_POINT('',(0.,31.,0.));
#1383=CARTESIAN_POINT('',(0.,31.,-34.9));
#1384=CARTESIAN_POINT('',(0.,0.,0.));
#1385=CARTESIAN_POINT('',(0.,14.,0.));
#1386=CARTESIAN_POINT('',(0.,14.,-34.9));
#1387=CARTESIAN_POINT('',(34.9,14.,0.));
#1388=CARTESIAN_POINT('',(0.,14.,0.));
#1389=CARTESIAN_POINT('',(0.,14.,-35.));
#1390=CARTESIAN_POINT('',(0.,0.,0.));
#1391=CARTESIAN_POINT('',(0.,0.999999999999999,0.));
#1392=CARTESIAN_POINT('',(0.,0.999999999999999,-35.));
#1393=CARTESIAN_POINT('',(0.,1.,0.));
#1394=CARTESIAN_POINT('',(-1.6144447974667E-15,1.,2.25080371007991E-13));
#1395=CARTESIAN_POINT('',(-32.9848450049413,1.,0.999999999999996));
#1396=CARTESIAN_POINT('',(-32.9848450049413,1.,0.999999999999996));
#1397=CARTESIAN_POINT('',(-1.6144447974667E-15,1.,2.25080371007991E-13));
#1398=CARTESIAN_POINT('',(-32.9848450049413,1.,-1.));
#1399=CARTESIAN_POINT('',(-32.9848450049413,1.,-1.));
#1400=CARTESIAN_POINT('',(-32.9848450049413,1.,-1.));
#1401=CARTESIAN_POINT('',(-32.9848450049413,1.,-1.));
#1402=CARTESIAN_POINT('',(-31.,1.,-1.));
#1403=CARTESIAN_POINT('',(-31.,1.,-1.));
#1404=CARTESIAN_POINT('',(-31.,1.,-0.499999999999999));
#1405=CARTESIAN_POINT('',(-31.,1.,-0.499999999999999));
#1406=CARTESIAN_POINT('',(-30.5,1.,-0.500000000000004));
#1407=CARTESIAN_POINT('',(-30.5,1.,-0.500000000000004));
#1408=CARTESIAN_POINT('',(-30.5,1.,-0.500000000000004));
#1409=CARTESIAN_POINT('',(-30.5,1.,-0.500000000000004));
#1410=CARTESIAN_POINT('',(-30.5,1.,0.499999999999996));
#1411=CARTESIAN_POINT('',(-30.5,1.,0.499999999999996));
#1412=CARTESIAN_POINT('',(-31.,1.,0.499999999999994));
#1413=CARTESIAN_POINT('',(-31.,1.,0.499999999999994));
#1414=CARTESIAN_POINT('',(-31.,1.,0.999999999999994));
#1415=CARTESIAN_POINT('',(-31.,1.,0.999999999999994));
#1416=CARTESIAN_POINT('',(-10.,1.,-19.5));
#1417=CARTESIAN_POINT('',(-10.,1.,-1.22464679914735E-15));
#1418=CARTESIAN_POINT('',(-10.,1.,-1.22464679914735E-15));
#1419=CARTESIAN_POINT('',(-10.,1.95156391047391E-15,-1.22464679914735E-15));
#1420=CARTESIAN_POINT('',(-10.,1.,-19.5));
#1421=CARTESIAN_POINT('',(-10.,1.,-19.5));
#1422=CARTESIAN_POINT('',(-10.,1.,-19.5));
#1423=CARTESIAN_POINT('',(-10.,1.95156391047391E-15,-19.5));
#1424=CARTESIAN_POINT('',(-10.,1.95156391047391E-15,0.));
#1425=CARTESIAN_POINT('',(8.67361737988404E-16,1.,-19.5));
#1426=CARTESIAN_POINT('',(8.67361737988404E-16,1.,-19.5));
#1427=CARTESIAN_POINT('',(10.,1.,-19.5));
#1428=CARTESIAN_POINT('',(10.,1.,-19.5));
#1429=CARTESIAN_POINT('',(10.,1.95156391047391E-15,-19.5));
#1430=CARTESIAN_POINT('',(8.67361737988404E-16,1.95156391047391E-15,-19.5));
#1431=CARTESIAN_POINT('',(10.,1.,0.));
#1432=CARTESIAN_POINT('',(10.,1.,0.));
#1433=CARTESIAN_POINT('',(10.,1.,0.));
#1434=CARTESIAN_POINT('',(10.,1.,0.));
#1435=CARTESIAN_POINT('',(10.,1.95156391047391E-15,0.));
#1436=CARTESIAN_POINT('',(10.,1.95156391047391E-15,0.));
#1437=CARTESIAN_POINT('',(17.3205080756888,1.,-10.));
#1438=CARTESIAN_POINT('',(17.3205080756888,1.,-10.));
#1439=CARTESIAN_POINT('',(23.8205080756888,1.,-10.));
#1440=CARTESIAN_POINT('',(17.3205080756888,1.95156391047391E-15,-10.));
#1441=CARTESIAN_POINT('',(17.3205080756888,1.95156391047391E-15,-3.5));
#1442=CARTESIAN_POINT('',(0.,1.,20.));
#1443=CARTESIAN_POINT('',(0.,1.,20.));
#1444=CARTESIAN_POINT('',(6.5,1.,20.));
#1445=CARTESIAN_POINT('',(0.,1.95156391047391E-15,20.));
#1446=CARTESIAN_POINT('',(0.,1.95156391047391E-15,26.5));
#1447=CARTESIAN_POINT('',(0.,1.,0.));
#1448=CARTESIAN_POINT('',(0.,1.,0.));
#1449=CARTESIAN_POINT('',(0.,1.95156391047391E-15,0.));
#1450=CARTESIAN_POINT('',(-17.3205080756888,1.,-10.));
#1451=CARTESIAN_POINT('',(-17.3205080756888,1.,-10.));
#1452=CARTESIAN_POINT('',(-10.8205080756888,1.,-10.));
#1453=CARTESIAN_POINT('',(-17.3205080756888,1.95156391047391E-15,-10.));
#1454=CARTESIAN_POINT('',(-17.3205080756888,1.95156391047391E-15,-3.5));
#1455=CARTESIAN_POINT('',(-31.,1.,0.999999999999996));
#1456=CARTESIAN_POINT('',(-31.,1.,0.999999999999996));
#1457=CARTESIAN_POINT('',(-1.6144447974667E-15,1.,2.25080371007991E-13));
#1458=CARTESIAN_POINT('',(34.,1.95156391047391E-15,0.));
#1459=CARTESIAN_POINT('',(-17.3205080756888,0.,-10.));
#1460=CARTESIAN_POINT('',(-11.8205080756888,0.,-10.));
#1461=CARTESIAN_POINT('',(34.,1.95156391047391E-15,0.));
#1462=CARTESIAN_POINT('',(-9.,0.,-19.5));
#1463=CARTESIAN_POINT('',(-9.,1.73472347597681E-15,-19.5));
#1464=CARTESIAN_POINT('',(-9.,0.,-1.10218211923262E-15));
#1465=CARTESIAN_POINT('',(0.,0.,0.));
#1466=CARTESIAN_POINT('',(9.,0.,0.));
#1467=CARTESIAN_POINT('',(9.,0.,0.));
#1468=CARTESIAN_POINT('',(9.,0.,-19.5));
#1469=CARTESIAN_POINT('',(8.67361737988404E-16,0.,-19.5));
#1470=CARTESIAN_POINT('',(34.,1.95156391047391E-15,0.));
#1471=CARTESIAN_POINT('',(0.,1.73472347597681E-15,20.));
#1472=CARTESIAN_POINT('',(0.,1.73472347597681E-15,25.5));
#1473=CARTESIAN_POINT('',(34.,1.95156391047391E-15,0.));
#1474=CARTESIAN_POINT('',(17.3205080756888,0.,-10.));
#1475=CARTESIAN_POINT('',(22.8205080756888,0.,-10.));
#1476=CARTESIAN_POINT('',(0.,3.,20.));
#1477=CARTESIAN_POINT('',(0.,3.,20.));
#1478=CARTESIAN_POINT('',(5.5,3.,20.));
#1479=CARTESIAN_POINT('',(0.,3.,20.));
#1480=CARTESIAN_POINT('',(0.,3.,20.));
#1481=CARTESIAN_POINT('',(0.,3.,22.));
#1482=CARTESIAN_POINT('',(-17.3205080756888,3.,-10.));
#1483=CARTESIAN_POINT('',(-17.3205080756888,3.,-10.));
#1484=CARTESIAN_POINT('',(-11.8205080756888,3.,-10.));
#1485=CARTESIAN_POINT('',(-17.3205080756888,3.,-10.));
#1486=CARTESIAN_POINT('',(-17.3205080756888,3.,-10.));
#1487=CARTESIAN_POINT('',(-17.3205080756888,3.,-8.00000000000001));
#1488=CARTESIAN_POINT('',(17.3205080756888,3.,-10.));
#1489=CARTESIAN_POINT('',(17.3205080756888,3.,-10.));
#1490=CARTESIAN_POINT('',(22.8205080756888,3.,-10.));
#1491=CARTESIAN_POINT('',(17.3205080756888,3.,-10.));
#1492=CARTESIAN_POINT('',(17.3205080756888,3.,-9.99999999999999));
#1493=CARTESIAN_POINT('',(17.3205080756888,3.,-8.));
#1494=CARTESIAN_POINT('',(-9.,3.,-19.5));
#1495=CARTESIAN_POINT('',(-9.,3.,-19.5));
#1496=CARTESIAN_POINT('',(-9.,3.,-19.5));
#1497=CARTESIAN_POINT('',(-9.,3.,-19.5));
#1498=CARTESIAN_POINT('',(-9.,3.,-1.10218211923262E-15));
#1499=CARTESIAN_POINT('',(-9.,3.,-1.10218211923262E-15));
#1500=CARTESIAN_POINT('',(0.,3.,0.));
#1501=CARTESIAN_POINT('',(0.,3.,0.));
#1502=CARTESIAN_POINT('',(9.,3.,0.));
#1503=CARTESIAN_POINT('',(9.,3.,0.));
#1504=CARTESIAN_POINT('',(9.,3.,0.));
#1505=CARTESIAN_POINT('',(9.,3.,0.));
#1506=CARTESIAN_POINT('',(9.,3.,-19.5));
#1507=CARTESIAN_POINT('',(9.,3.,-19.5));
#1508=CARTESIAN_POINT('',(8.67361737988404E-16,3.,-19.5));
#1509=CARTESIAN_POINT('',(8.67361737988404E-16,3.,-19.5));
#1510=CARTESIAN_POINT('',(0.,3.,0.));
#1511=CARTESIAN_POINT('',(0.,-25.,20.));
#1512=CARTESIAN_POINT('',(0.,-24.5705,20.));
#1513=CARTESIAN_POINT('',(0.,-24.5705,18.));
#1514=CARTESIAN_POINT('',(0.,-24.5705,20.));
#1515=CARTESIAN_POINT('',(0.,-25.,20.));
#1516=CARTESIAN_POINT('',(0.,-25.,18.4295));
#1517=CARTESIAN_POINT('',(0.,-25.,18.4295));
#1518=CARTESIAN_POINT('',(17.3205080756888,-25.,-9.99999999999999));
#1519=CARTESIAN_POINT('',(17.3205080756888,-24.5705,-9.99999999999999));
#1520=CARTESIAN_POINT('',(17.3205080756888,-24.5705,-12.));
#1521=CARTESIAN_POINT('',(17.3205080756888,-24.5705,-9.99999999999999));
#1522=CARTESIAN_POINT('',(17.3205080756888,-25.,-9.99999999999999));
#1523=CARTESIAN_POINT('',(17.3205080756888,-25.,-11.5705));
#1524=CARTESIAN_POINT('',(15.9604151790453,-25.,-9.21475));
#1525=CARTESIAN_POINT('',(-17.3205080756888,-25.,-10.));
#1526=CARTESIAN_POINT('',(-17.3205080756888,-24.5705,-10.));
#1527=CARTESIAN_POINT('',(-17.3205080756888,-24.5705,-12.));
#1528=CARTESIAN_POINT('',(-17.3205080756888,-24.5705,-10.));
#1529=CARTESIAN_POINT('',(-17.3205080756888,-25.,-10.));
#1530=CARTESIAN_POINT('',(-17.3205080756888,-25.,-11.5705));
#1531=CARTESIAN_POINT('',(-15.9604151790453,-25.,-9.21475000000001));
#1532=MECHANICAL_DESIGN_GEOMETRIC_PRESENTATION_REPRESENTATION('',(#622,
#623,#624,#625,#626,#627,#628,#629,#630,#631,#632,#633,#634,#635,#636,#637,
#638,#639,#640,#641,#642,#643,#644,#645,#646,#647,#648,#649,#650,#651,#652,
#653,#654,#655,#656,#657,#658,#659,#660,#661,#662,#663,#664,#665,#666,#667,
#668,#669,#670,#671),#1533);
#1533=(
GEOMETRIC_REPRESENTATION_CONTEXT(3)
GLOBAL_UNCERTAINTY_ASSIGNED_CONTEXT((#1534))
GLOBAL_UNIT_ASSIGNED_CONTEXT((#1537,#1536,#1535))
REPRESENTATION_CONTEXT('DV1520','TOP_LEVEL_ASSEMBLY_PART')
);
#1534=UNCERTAINTY_MEASURE_WITH_UNIT(LENGTH_MEASURE(1.E-5),#1537,
'DISTANCE_ACCURACY_VALUE','Maximum Tolerance applied to model');
#1535=(
NAMED_UNIT(*)
SI_UNIT($,.STERADIAN.)
SOLID_ANGLE_UNIT()
);
#1536=(
NAMED_UNIT(*)
PLANE_ANGLE_UNIT()
SI_UNIT($,.RADIAN.)
);
#1537=(
LENGTH_UNIT()
NAMED_UNIT(*)
SI_UNIT(.MILLI.,.METRE.)
);
#1538=PRODUCT_DEFINITION_SHAPE('','',#1539);
#1539=PRODUCT_DEFINITION('','',#1541,#1540);
#1540=PRODUCT_DEFINITION_CONTEXT('',#1547,'design');
#1541=PRODUCT_DEFINITION_FORMATION_WITH_SPECIFIED_SOURCE('','',#1543,
 .NOT_KNOWN.);
#1542=PRODUCT_RELATED_PRODUCT_CATEGORY('','',(#1543));
#1543=PRODUCT('DV1520','DV1520','DV1520',(#1545));
#1544=PRODUCT_CATEGORY('','');
#1545=PRODUCT_CONTEXT('',#1547,'mechanical');
#1546=APPLICATION_PROTOCOL_DEFINITION('international standard',
'automotive_design',2010,#1547);
#1547=APPLICATION_CONTEXT(
'core data for automotive mechanical design processes');
ENDSEC;
END-ISO-10303-21;
